SplineFontDB: 3.0
FontName: Metrico
FullName: Metrico
FamilyName: Metrico
Weight: Standard
Copyright: Copyright 2019 Florian Kretlow
Version: 0.1.0.14
ItalicAngle: 0
UnderlinePosition: -200
UnderlineWidth: 100
Ascent: 700
Descent: 300
InvalidEm: 0
LayerCount: 4
Layer: 0 0 "Back" 1
Layer: 1 0 "Zeichenebene" 0
Layer: 2 0 "Struktur" 0
Layer: 3 0 "Struktur 2" 0
XUID: [1021 864 31587 12318]
FSType: 0
OS2Version: 0
OS2_WeightWidthSlopeOnly: 0
OS2_UseTypoMetrics: 1
CreationTime: 1324930714
ModificationTime: 1546983488
PfmFamily: 17
TTFWeight: 400
TTFWidth: 5
LineGap: 180
VLineGap: 0
OS2TypoAscent: 0
OS2TypoAOffset: 1
OS2TypoDescent: 0
OS2TypoDOffset: 1
OS2TypoLinegap: 180
OS2WinAscent: 0
OS2WinAOffset: 1
OS2WinDescent: 0
OS2WinDOffset: 1
HheadAscent: 0
HheadAOffset: 1
HheadDescent: 0
HheadDOffset: 1
OS2Vendor: 'PfEd'
MarkAttachClasses: 1
DEI: 91125
LangName: 1033
Encoding: UnicodeFull
UnicodeInterp: none
NameList: Adobe Glyph List
DisplaySize: -72
AntiAlias: 1
FitToEm: 1
WinInfo: 30 10 8
BeginPrivate: 0
EndPrivate
Grid
-1000 562.799804688 m 0
 2000 562.799804688 l 1024
  Named: "562"
EndSplineSet
TeXData: 1 0 0 262144 131072 87381 190841 1048576 87381 783286 444596 497025 792723 393216 433062 380633 303038 157286 324010 404750 52429 2506097 1059062 262144
AnchorClass2: "chainleft"""  "chain"""  "acc""" 
BeginChars: 1114112 102

StartChar: zero
Encoding: 48 48 0
Width: 512
VWidth: 0
Flags: HMW
LayerCount: 4
Fore
SplineSet
50 280 m 0
 50 442 135 570 256 570 c 0
 377 570 462 442 462 280 c 0
 462 118 377 -8 256 -8 c 0
 135 -8 50 118 50 280 c 0
256 526 m 3
 184 526 156 432 156 300 c 2
 156 256 l 2
 156 124 184 36 256 36 c 3
 328 36 354 124 354 256 c 2
 354 300 l 2
 354 432 328 526 256 526 c 3
EndSplineSet
EndChar

StartChar: one
Encoding: 49 49 1
Width: 437
VWidth: 0
Flags: HMW
LayerCount: 4
Fore
SplineSet
288 112 m 2
 288 60 325 42 361 42 c 2
 387 42 l 17
 387 0 l 9
 91 0 l 17
 91 42 l 9
 127 42 l 2
 163 42 196 64 196 114 c 2
 196 441 l 2
 196 455 190 463 176 463 c 0
 170 463 162 461 150 457 c 2
 87 431 l 1
 70 464 l 9
 218 562 l 17
 288 562 l 9
 288 112 l 2
EndSplineSet
EndChar

StartChar: two
Encoding: 50 50 2
Width: 512
VWidth: 0
Flags: HMW
LayerCount: 4
Fore
SplineSet
462 158 m 1
 462 72 426 -8 346 -8 c 0
 274 -8 218 56 158 56 c 0
 120 56 104 36 90 0 c 1
 50 0 l 1
 58 84 144 182 214 230 c 0
 315 306 343 358 343 418 c 0
 343 492 305 526 249 526 c 0
 193 526 158 497 158 470 c 0
 158 447 187 439 187 396 c 0
 187 367 166 344 131 344 c 0
 92 344 67 370 67 413 c 0
 67 477 137 570 261 570 c 0
 369 570 457 506 457 414 c 0
 457 318 380 280 306 235 c 0
 286 222 202 180 156 110 c 1
 246 110 264 90 338 90 c 0
 388 90 412 114 426 164 c 1
 462 158 l 1
EndSplineSet
EndChar

StartChar: three
Encoding: 51 51 3
Width: 503
VWidth: 0
Flags: HMW
LayerCount: 4
Fore
SplineSet
171 151 m 0
 171 120 150 110 150 84 c 0
 150 54 186 34 233 34 c 0
 297 34 345 79 345 152 c 0
 345 219 302 276 188 276 c 1
 188 312 l 1
 292 314 335 363 335 427 c 0
 335 495 290 528 239 528 c 0
 190 528 168 503 168 486 c 0
 168 463 200 461 200 417 c 0
 200 390 181 365 145 365 c 0
 116 365 85 390 85 434 c 0
 85 496 154 570 260 570 c 0
 365 570 436 505 436 428 c 0
 436 350 382 319 332 300 c 1
 332 289 l 1
 399 267 453 221 453 146 c 0
 453 53 372 -8 240 -8 c 0
 122 -8 50 67 50 133 c 0
 50 175 78 206 117 206 c 0
 146 206 171 185 171 151 c 0
EndSplineSet
EndChar

StartChar: four
Encoding: 52 52 4
Width: 536
VWidth: 0
Flags: HMW
LayerCount: 4
Fore
SplineSet
394 166 m 1
 394 96 l 2
 394 52 430 40 469 40 c 1
 469 0 l 1
 217 0 l 1
 217 40 l 1
 237 40 l 2
 265 40 302 54 302 96 c 2
 302 166 l 1
 40 166 l 1
 40 206 l 1
 110 322 151 430 185 562 c 1
 318 562 l 1
 254 432 202 364 100 212 c 1
 302 212 l 1
 302 324 l 1
 394 422 l 1
 394 212 l 1
 486 212 l 1
 486 166 l 1
 394 166 l 1
EndSplineSet
EndChar

StartChar: five
Encoding: 53 53 5
Width: 501
VWidth: 0
Flags: HMW
LayerCount: 4
Fore
SplineSet
252 358 m 0
 354 358 451 292 451 184 c 0
 451 71 359 -8 241 -8 c 4
 123 -8 50 67 50 131 c 4
 50 173 78 204 117 204 c 4
 146 204 171 183 171 149 c 4
 171 118 150 108 150 82 c 4
 150 55 177 34 226 34 c 4
 298 34 345 94 345 186 c 0
 345 276 288 312 229 312 c 3
 188 312 153 298 125 272 c 1
 99 286 l 9
 103 562 l 1
 161 556 207 552 255 552 c 0
 301 552 347 554 403 562 c 1
 413 548 l 1
 379 492 333 454 241 454 c 3
 209 454 181 458 145 462 c 9
 143 336 l 17
 149 333 l 17
 176 346 208 358 252 358 c 0
EndSplineSet
EndChar

StartChar: six
Encoding: 54 54 6
Width: 503
VWidth: 0
Flags: HMW
LayerCount: 4
Back
SplineSet
457 398 m 4
 422 398 400 422 400 455 c 4
 400 470 406 484 406 499 c 4
 406 515 389 528 362 528 c 7
 252 528 236 396 236 276 c 5
 264 310 308 336 364 336 c 4
 474 336 546 260 546 172 c 4
 546 68 462 -8 352 -8 c 4
 202 -8 140 132 140 276 c 4
 140 466 250 570 360 570 c 7
 458 570 514 513 514 461 c 4
 514 426 494 398 457 398 c 4
352 290 m 4
 288 290 246 236 246 160 c 7
 246 82 280 36 340 36 c 4
 408 36 444 94 444 170 c 4
 444 242 414 290 352 290 c 4
EndSplineSet
Fore
SplineSet
372 395 m 4
 336 395 315 419 315 452 c 4
 315 468 322 482 322 498 c 4
 322 515 303 527 275 527 c 4
 168 527 149 397 146 279 c 5
 174 311 217 335 271 335 c 4
 382 335 453 258 453 171 c 4
 453 66 368 -8 261 -8 c 4
 110 -8 50 127 50 268 c 4
 50 462 161 570 273 570 c 4
 372 570 429 510 429 458 c 4
 429 423 408 395 372 395 c 4
351 174 m 4
 351 243 322 290 259 290 c 4
 195 290 153 234 153 156 c 4
 153 81 186 36 247 36 c 4
 315 36 351 96 351 174 c 4
EndSplineSet
EndChar

StartChar: seven
Encoding: 55 55 7
Width: 462
VWidth: 0
Flags: HMW
LayerCount: 4
Fore
SplineSet
102 562 m 5
 102 538 102 526 116 526 c 7
 134 526 156 570 214 570 c 4
 284 570 294 516 342 516 c 4
 370 516 390 536 398 562 c 5
 442 562 l 5
 402 376 290 250 276 70 c 4
 272 16 242 -6 212 -6 c 4
 182 -6 152 18 152 60 c 4
 152 170 270 284 360 438 c 5
 316 444 216 476 174 476 c 7
 144 476 102 468 88 348 c 5
 50 348 l 5
 62 562 l 5
 102 562 l 5
EndSplineSet
EndChar

StartChar: eight
Encoding: 56 56 8
Width: 498
VWidth: 3220
Flags: HMW
LayerCount: 4
Fore
SplineSet
79 420 m 0
 79 502 151 570 256 570 c 0
 356 570 424 506 424 428 c 0
 424 379 390 333 340 304 c 1
 397 274 448 234 448 159 c 0
 448 59 363 -8 255 -8 c 0
 135 -8 50 58 50 142 c 0
 50 212 96 259 159 287 c 1
 114 315 79 353 79 420 c 0
207 261 m 1
 153 241 110 204 110 146 c 0
 110 92 165 42 255 42 c 0
 325 42 374 86 374 126 c 0
 374 196 271 231 207 261 c 1
290 327 m 1
 336 349 362 390 362 432 c 0
 362 486 320 522 256 522 c 0
 195 522 153 489 153 445 c 0
 153 388 224 357 290 327 c 1
EndSplineSet
Layer: 2
SplineSet
538 159 m 4
 538 59 453 -8 345 -8 c 4
 225 -8 140 58 140 142 c 4
 140 241 232 294 334 312 c 4
 407 325 452 377 452 432 c 4
 452 486 410 522 346 522 c 4
 285 522 243 489 243 445 c 4xd8
 243 392 298 366 363 335 c 4
 439 300 538 263 538 159 c 4
169 420 m 4
 169 502 241 570 346 570 c 4
 446 570 514 506 514 428 c 4xd8
 514 355 438 289 347 274 c 4
 271 261 200 221 200 146 c 4
 200 92 255 42 345 42 c 4
 415 42 464 86 464 126 c 4xe4
 464 189 379 224 317 252 c 4
 245 285 169 322 169 420 c 4
EndSplineSet
EndChar

StartChar: nine
Encoding: 57 57 9
Width: 503
VWidth: 0
Flags: HMW
LayerCount: 4
Fore
SplineSet
168 70 m 0
 168 53 185 34 223 34 c 3
 343 34 357 188 357 289 c 1
 325 257 285 231 229 231 c 0
 119 231 50 297 50 389 c 0
 50 483 133 570 246 570 c 0
 381 570 453 452 453 296 c 0
 453 96 342 -8 223 -8 c 3
 118 -8 58 58 58 106 c 0
 58 138 77 166 116 166 c 0
 149 166 172 143 172 106 c 0
 172 93 168 82 168 70 c 0
241 277 m 0
 305 277 349 330 349 397 c 3
 349 475 312 526 253 526 c 0
 183 526 149 466 149 395 c 0
 149 321 179 277 241 277 c 0
EndSplineSet
EndChar

StartChar: bracketleft
Encoding: 91 91 10
Width: 340
VWidth: 2290
Flags: HMW
LayerCount: 4
Back
SplineSet
18 -112 m 5xe4
 -30 -112 l 5
 -30 696 l 5
 18 696 l 5
 18 -112 l 5xe4
-30 -112 m 1xe4
 -30 -64 l 1
 190 -64 l 1
 190 -112 l 1
 -30 -112 l 1xe4
-30 648 m 1xe4
 -30 696 l 1
 190 696 l 1
 190 648 l 1
 -30 648 l 1xe4
EndSplineSet
Fore
SplineSet
98 -114 m 1
 240 -114 l 5
 240 -162 l 5
 50 -162 l 1
 50 696 l 1
 240 696 l 5
 240 648 l 5
 98 648 l 1
 98 -114 l 1
EndSplineSet
EndChar

StartChar: quotedbl
Encoding: 34 34 12
Width: 1000
VWidth: 0
LayerCount: 4
Back
SplineSet
88 198 m 0x78
 88 180 77 168 60 168 c 0
 42 168 26 183 26 207 c 0
 26 244 64 285 124 285 c 0
 174 285 217 255 217 209 c 0
 217 161 176 143 141 121 c 0
 119 107 99 91 82 71 c 0
 75 64 79 52 88 52 c 0x78
 109 51 133 43 158 43 c 0
 180 43 194 59 196 84 c 1
 214 84 l 1
 221 52 213 -4 155 -4 c 0xb4
 115 -4 100 21 72 21 c 0
 58 21 47 12 43 0 c 1
 25 0 l 1
 28 42 66 95 98 119 c 0
 146 156 165 181 165 211 c 0
 165 248 139 266 109 266 c 0
 92 266 76 258 64 247 c 0
 60 242 59 239 59 236 c 0
 59 226 88 230 88 198 c 0x78
EndSplineSet
Fore
Validated: 1
EndChar

StartChar: percent
Encoding: 37 37 13
Width: 1000
VWidth: 0
LayerCount: 4
Back
SplineSet
94 15 m 7xf4
 124 15 149 33 149 86 c 4
 149 125 129 146 103 146 c 4
 83 146 64 136 52 117 c 5
 40 122 l 13
 40 281 l 5
 206 281 l 5
 193 237 114 225 60 234 c 13
 60 151 l 21xec
 75 159 90 166 117 166 c 4
 160 166 204 141 204 86 c 4
 204 31 157 -4 106 -4 c 7
 58 -4 25 17 25 50 c 4
 25 67 38 81 55 81 c 4
 72 81 84 67 84 50 c 4
 84 39 73 32 73 23 c 4
 73 19 78 15 94 15 c 7xf4
EndSplineSet
Fore
Validated: 1
EndChar

StartChar: hyphen
Encoding: 45 45 14
Width: 0
VWidth: 2000
Flags: HMW
LayerCount: 4
Fore
SplineSet
80 231 m 1
 80 277 l 1
 420 277 l 1
 420 231 l 1
 80 231 l 1
EndSplineSet
EndChar

StartChar: uni001A
Encoding: 26 26 15
Width: 0
LayerCount: 4
Back
SplineSet
0 208 m 4
 0 216 1 216 16 216 c 4
 29 216 30 216 30 208 c 4
 30 121 l 4
 30 92 36 91 58 97 c 4
 117 114 l 4
 136 119 141 118 141 103 c 4
 141 -207 l 4
 141 -215 139 -216 125 -216 c 4
 110 -216 111 -215 111 -206 c 4
 111 -120 l 4
 111 -92 107 -91 83 -97 c 4
 25 -114 l 4
 3 -120 0 -119 0 -103 c 4
 0 208 l 4
113 29 m 4
 113 54 105 54 86 48 c 4
 51 37 l 4
 29 31 28 27 28 -2 c 4
 28 -29 l 4
 28 -53 35 -53 54 -47 c 4
 90 -37 l 4
 111 -31 113 -25 113 3 c 4
 113 29 l 4
EndSplineSet
Fore
Validated: 1
EndChar

StartChar: parenleft
Encoding: 40 40 16
Width: 361
VWidth: 2280
Flags: HMW
LayerCount: 4
Back
SplineSet
106 260 m 4
 106 124 158 16 228 -56 c 5
 206 -80 l 5
 110 -2 50 130 50 260 c 4
 50 390 110 522 206 600 c 5
 228 576 l 5
 166 512 106 396 106 260 c 4
EndSplineSet
Fore
SplineSet
108 260 m 0
 108 89 174 -56 261 -143 c 1
 238 -168 l 1
 119 -74 50 95 50 260 c 0
 50 425 119 594 238 688 c 1
 261 663 l 1
 183 585 108 431 108 260 c 0
EndSplineSet
EndChar

StartChar: asciicircum
Encoding: 94 94 18
Width: 1000
VWidth: 0
LayerCount: 4
Back
SplineSet
92 150 m 0xf8
 101 157 118 165 137 165 c 0xf8
 187 165 212 132 212 88 c 0xf4
 212 36 176 -4 120 -4 c 0
 51 -4 25 61 25 131 c 0
 25 228 76 285 137 285 c 0
 167 285 199 267 199 238 c 0
 199 220 184 205 167 205 c 0
 150 205 137 218 137 235 c 0
 137 250 142 252 142 259 c 0
 142 265 138 267 134 267 c 0
 104 267 77 217 75 156 c 0
 75 149 83 142 92 150 c 0xf8
129 146 m 0
 99 146 78 115 78 78 c 3
 78 46 93 14 120 14 c 0
 152 14 163 39 163 87 c 0xf4
 163 119 161 146 129 146 c 0
EndSplineSet
Fore
Validated: 1
EndChar

StartChar: uni001D
Encoding: 29 29 19
Width: 0
VWidth: 0
LayerCount: 4
Back
SplineSet
46 339 m 5
 46 297 43 195 43 148 c 4
 43 145 43 142 46 142 c 4
 50 142 73 169 101 169 c 4
 127 169 154 153 154 115 c 4
 154 99 148 79 144 73 c 4
 141 68 136 61 126 51 c 4
 115 40 83 24 64 10 c 4
 50 -1 31 -19 23 -19 c 4
 21 -19 20 -18 20 -14 c 4
 20 104 20 230 19 340 c 5
 19 340 24 342 32 342 c 4
 48 342 46 339 46 339 c 5
41 15 m 5
 69 41 103 56 103 105 c 4
 103 125 91 139 76 139 c 4
 57 139 43 109 43 109 c 5
 43 109 41 89 41 72 c 6
 41 15 l 5
EndSplineSet
Fore
Validated: 1
EndChar

StartChar: uni001E
Encoding: 30 30 20
Width: 0
VWidth: 0
LayerCount: 4
Back
SplineSet
55 271 m 5
 55 271 60 271 65 271 c 4
 71 271 76 270 76 270 c 5
 76 259 76 207 76 196 c 4
 76 186 75 180 82 180 c 4
 86 180 100 184 105 186 c 4
 113 189 128 190 128 204 c 4
 128 226 126 267 126 289 c 5
 126 289 130 291 135 291 c 4
 142 291 148 289 148 289 c 5
 148 286 147 267 147 256 c 4
 147 207 148 203 156 203 c 4
 164 203 168 207 169 207 c 4
 170 207 175 206 175 204 c 6
 175 156 l 6
 175 152 173 151 161 147 c 4
 152 145 147 142 147 138 c 6
 147 60 l 6
 147 56 150 51 155 51 c 4
 163 51 168 55 172 55 c 4
 174 55 175 55 175 52 c 6
 175 1 l 6
 175 -1 153 -6 147 -11 c 5
 148 -107 l 5
 148 -107 146 -109 138 -109 c 4
 130 -109 127 -107 127 -107 c 5
 127 -107 128 -53 128 -27 c 6
 128 -21 l 5
 128 -21 126 -18 120 -18 c 4
 113 -18 75 -32 75 -32 c 5
 75 -75 l 6
 75 -103 76 -126 76 -126 c 5
 76 -126 76 -128 68 -128 c 4
 62 -128 55 -127 55 -127 c 5
 55 -127 56 -95 56 -75 c 4
 56 -43 55 -42 49 -42 c 4
 42 -42 36 -45 34 -45 c 4
 32 -45 29 -41 29 -39 c 6
 29 9 l 6
 29 13 56 15 56 24 c 6
 56 94 l 6
 56 108 50 110 47 110 c 4
 43 110 36 107 35 107 c 4
 33 107 29 110 29 112 c 6
 29 157 l 6
 29 161 36 164 45 167 c 4
 53 169 56 171 56 201 c 4
 56 220 55 257 55 271 c 5
75 46 m 4
 75 38 77 30 85 30 c 4
 106 30 128 43 128 48 c 6
 128 127 l 6
 128 130 119 131 115 131 c 4
 103 131 77 120 76 113 c 4
 75 107 75 65 75 46 c 4
EndSplineSet
Fore
Validated: 1
EndChar

StartChar: plus
Encoding: 43 43 22
Width: 0
VWidth: 0
Flags: HMW
LayerCount: 4
Fore
SplineSet
227 474 m 1
 273 474 l 1
 273 277 l 1
 470 277 l 1
 470 231 l 1
 273 231 l 1
 273 34 l 1
 227 34 l 1
 227 231 l 1
 30 231 l 1
 30 277 l 1
 227 277 l 1
 227 474 l 1
EndSplineSet
EndChar

StartChar: period
Encoding: 46 46 24
Width: 321
VWidth: -25
Flags: HW
HStem: 54 135<118.139 216.384>
VStem: 100 135<72.139 170.384>
LayerCount: 4
Fore
SplineSet
97 54 m 0
 97 90 124 118 160 118 c 0
 196 118 224 90 224 54 c 0
 224 18 196 -9 160 -9 c 0
 124 -9 97 18 97 54 c 0
EndSplineSet
EndChar

StartChar: comma
Encoding: 44 44 25
Width: 326
VWidth: -25
Flags: HW
LayerCount: 4
Back
SplineSet
80 -185 m 1x60
 58 -156 l 1
 119 -109 162 -52 162 -19 c 0
 162 -12 159 -7 155 -7 c 0x60
 152 -7 148 -8 143 -9 c 0
 138 -10 133 -11 128 -11 c 0
 91 -11 64 12 64 51 c 0
 64 82 94 109 127 109 c 0xa0
 178 109 212 70 212 6 c 0
 212 -58 177 -113 80 -185 c 1x60
EndSplineSet
Fore
SplineSet
86 53 m 0
 86 86 110 112 150 112 c 0
 185 112 236 79 236 -6 c 0
 236 -73 185 -148 81 -182 c 1
 72 -149 l 1
 97 -138 119 -125 137 -111 c 0
 164 -90 188 -60 188 -31 c 0
 188 -13 178 -1 160 -1 c 0
 153 -1 145 -2 138 -2 c 0
 107 -2 86 26 86 53 c 0
EndSplineSet
EndChar

StartChar: d
Encoding: 100 100 26
Width: 669
VWidth: 900
Flags: HW
HStem: -17 94<94 564> 223 94<94.008 561>
VStem: 50 44<-129 -17 77 223 338 429> 575 44<-129 -17.011 77.033 222.972 317 429>
LayerCount: 4
Fore
SplineSet
50 429 m 1
 94 429 l 1
 94 338 l 1
 94 338 105 317 117 317 c 18
 575 317 l 1
 575 429 l 1
 619 429 l 1
 619 317 l 1
 619 223 l 1
 619 77 l 5
 619 -17 l 5
 619 -129 l 5
 575 -129 l 5
 575 -43 l 6
 575 -32 564 -17 564 -17 c 5
 94 -17 l 5
 94 -129 l 5
 50 -129 l 5
 50 -17 l 5
 50 77 l 5
 50 223 l 1
 50 317 l 1
 50 429 l 1
94 77 m 5
 573 77 l 5
 573 77 579 123 579 148 c 3
 579 184 561 223 561 223 c 1
 94 223 l 1
 94 77 l 5
EndSplineSet
EndChar

StartChar: i_zero
Encoding: 57600 57600 27
Width: 0
VWidth: 0
Flags: HMW
LayerCount: 4
Fore
SplineSet
296 568 m 0
 406 568 464 470 464 353 c 0
 464 161 338 -8 204 -8 c 0
 95 -8 35 89 35 207 c 0
 35 398 164 568 296 568 c 0
300 522 m 0
 237 522 190 437 158 316 c 0
 145 263 126 186 126 139 c 0
 126 79 146 38 200 38 c 0
 263 38 307 117 339 238 c 0
 353 293 372 373 372 422 c 0
 372 480 352 522 300 522 c 0
EndSplineSet
Validated: 1
EndChar

StartChar: i_one
Encoding: 57601 57601 28
Width: 0
VWidth: 0
Flags: HMW
LayerCount: 4
Back
SplineSet
277 112 m 6
 263 60 295 42 331 42 c 6
 361 42 l 21
 355 0 l 13
 59 0 l 21
 65 42 l 13
 97 42 l 6
 133 42 173 64 186 114 c 6
 270 428 l 6
 274 442 270 450 256 450 c 4
 250 450 241 448 228 444 c 6
 162 420 l 5
 151 454 l 13
 325 552 l 21
 395 552 l 13
 277 112 l 6
EndSplineSet
Fore
SplineSet
267 112 m 2
 265 103 264 96 264 89 c 0
 264 55 291 42 321 42 c 2
 351 42 l 17
 345 0 l 9
 49 0 l 17
 55 42 l 9
 87 42 l 2
 123 42 163 64 176 114 c 2
 258 419 l 2
 259 425 260 430 260 434 c 0
 260 445 254 450 244 450 c 0
 237 450 228 448 218 444 c 2
 155 421 l 1
 141 454 l 9
 315 552 l 17
 385 552 l 9
 267 112 l 2
EndSplineSet
Validated: 1
EndChar

StartChar: i_two
Encoding: 57602 57602 29
Width: 0
VWidth: 0
Flags: HMW
LayerCount: 4
Fore
SplineSet
122 114 m 1
 203 110 221 87 292 87 c 0
 339 87 362 110 378 158 c 1
 413 151 l 1
 410 66 373 -11 296 -11 c 0
 219 -11 167 60 102 60 c 0
 67 60 51 41 36 6 c 1
 -4 7 l 1
 17 92 118 182 194 224 c 0
 314 297 356 347 356 432 c 0
 356 493 323 524 267 524 c 0
 221 524 187 500 187 471 c 0
 187 453 205 441 205 411 c 0
 205 375 182 350 147 350 c 0
 109 350 87 375 87 411 c 0
 87 485 166 568 277 568 c 0
 386 568 468 497 468 409 c 0
 468 302 368 259 286 219 c 0
 264 208 185 182 122 114 c 1
EndSplineSet
Validated: 1
LCarets2: 1 0
EndChar

StartChar: i_three
Encoding: 57603 57603 30
Width: 0
VWidth: 0
Flags: HMW
LayerCount: 4
Back
SplineSet
90 210 m 0
 126 210 144 186 144 156 c 0
 144 114 108 98 108 74 c 0
 108 50 152 36 198 36 c 0
 268 36 318 88 318 174 c 0
 318 226 288 264 194 268 c 1
 186 268 l 1
 190 310 l 1
 198 310 l 2
 314 310 378 346 378 446 c 0
 378 496 350 528 290 528 c 0
 242 528 208 508 208 488 c 0
 208 474 238 464 238 430 c 0
 238 400 222 372 182 372 c 0
 152 372 122 392 122 434 c 0
 122 502 200 568 304 568 c 0
 400 568 480 508 480 434 c 0
 480 356 418 316 356 298 c 0
 348 296 338 296 338 286 c 0
 338 282 342 282 348 278 c 0
 398 256 426 212 426 162 c 0
 426 62 330 -6 208 -6 c 0
 92 -6 20 60 20 124 c 0
 20 176 58 210 90 210 c 0
EndSplineSet
Fore
SplineSet
89 231 m 0
 119 231 141 211 141 182 c 0
 141 137 100 132 100 94 c 0
 100 64 142 38 190 38 c 0
 251 38 313 90 313 172 c 0
 313 224 279 268 188 279 c 1
 195 314 l 1
 195 314 225 314 238 315 c 0
 321 319 375 367 375 444 c 0
 375 497 336 529 282 529 c 0
 246 529 223 512 223 493 c 0
 223 477 239 468 239 443 c 0
 239 409 216 382 182 382 c 0
 150 382 127 404 127 440 c 0
 127 511 208 568 298 568 c 0
 403 568 473 498 473 426 c 0
 473 329 391 295 333 285 c 1
 331 274 l 1
 380 246 416 204 416 149 c 0
 416 46 331 -8 227 -8 c 0
 93 -8 13 64 13 144 c 0
 13 194 49 231 89 231 c 0
EndSplineSet
Validated: 1
EndChar

StartChar: i_four
Encoding: 57604 57604 31
Width: 0
VWidth: 0
Flags: HMW
LayerCount: 4
Back
SplineSet
360 166 m 5
 342 96 l 6
 340 90 340 85 340 80 c 4
 340 49 372 40 406 40 c 5
 400 0 l 5
 148 0 l 5
 154 40 l 5
 170 40 l 6
 198 40 238 54 250 96 c 5
 268 166 l 5
 21 166 l 5
 27 206 l 5
 128 322 194 420 263 552 c 5
 397 552 l 5
 298 422 232 364 89 212 c 5
 281 212 l 5
 310 320 l 5
 428 418 l 5
 373 212 l 5
 465 212 l 5
 457 166 l 5
 360 166 l 5
EndSplineSet
Fore
SplineSet
363 166 m 1
 345 96 l 2
 343 90 343 85 343 80 c 0
 343 49 375 40 409 40 c 1
 403 0 l 1
 151 0 l 1
 157 40 l 1
 173 40 l 2
 201 40 241 54 253 96 c 1
 271 166 l 1
 14 166 l 1
 20 206 l 1
 121 322 187 420 256 552 c 1
 390 552 l 1
 291 422 225 364 82 212 c 1
 284 212 l 1
 313 320 l 1
 431 418 l 1
 376 212 l 1
 468 212 l 1
 460 166 l 1
 363 166 l 1
EndSplineSet
Validated: 1
EndChar

StartChar: i_five
Encoding: 57605 57605 32
Width: 0
VWidth: 0
Flags: HMW
LayerCount: 4
Back
SplineSet
193 -6 m 4
 79 -6 13 66 13 128 c 4
 13 180 45 210 85 210 c 4
 125 210 145 188 145 154 c 4
 145 104 113 100 113 72 c 4
 113 56 135 38 181 38 c 4
 257 38 331 118 331 222 c 4
 331 280 295 312 235 312 c 4
 193 312 157 298 125 276 c 5
 103 292 l 13
 181 564 l 5
 255 554 309 548 383 548 c 4
 413 548 445 550 481 554 c 5
 487 540 l 5
 441 488 387 452 303 452 c 4
 263 452 235 458 195 464 c 13
 161 340 l 21
 191 350 211 360 261 360 c 4
 357 360 435 302 435 206 c 4
 435 76 307 -6 193 -6 c 4
EndSplineSet
Fore
SplineSet
188 -6 m 4
 77 -6 16 65 16 126 c 4
 16 176 45 205 81 205 c 4
 116 205 137 184 137 151 c 4
 137 102 106 99 106 72 c 4
 106 57 133 38 176 38 c 4
 251 38 322 114 322 218 c 4
 322 276 288 308 229 308 c 4
 190 308 156 294 124 272 c 5
 102 288 l 13
 180 556 l 5
 254 546 303 540 377 540 c 4
 407 540 435 542 471 546 c 5
 480 531 l 5
 437 481 381 444 297 444 c 4
 257 444 234 450 194 456 c 13
 160 336 l 21
 190 346 208 356 255 356 c 4
 350 356 426 298 426 202 c 4
 426 72 301 -6 188 -6 c 4
EndSplineSet
Validated: 1
EndChar

StartChar: i_six
Encoding: 57606 57606 33
Width: 0
VWidth: 0
Flags: HMW
LayerCount: 4
Back
SplineSet
402 377 m 4
 368 377 348 399 348 426 c 4
 348 454 370 469 370 494 c 4
 370 513 344 527 313 527 c 4
 221 527 175 406 145 295 c 5
 174 319 213 336 256 336 c 4
 361 336 425 258 425 182 c 4
 425 65 319 -8 221 -8 c 4
 90 -8 34 87 34 195 c 4
 34 233 40 273 51 312 c 4
 96 483 213 568 313 568 c 4
 409 568 466 503 466 452 c 4
 466 409 437 377 402 377 c 4
326 207 m 4
 326 255 299 292 243 292 c 4
 175 292 116 216 116 125 c 4
 116 73 145 37 201 37 c 4
 268 37 326 118 326 207 c 4
EndSplineSet
Fore
SplineSet
402 377 m 0
 368 377 348 399 348 426 c 0
 348 454 370 469 370 494 c 0
 370 513 359 527 328 527 c 0
 236 527 173 412 142 293 c 1
 172 319 213 336 254 336 c 0
 359 336 420 260 420 177 c 0
 420 65 321 -8 226 -8 c 0
 92 -8 34 92 34 205 c 0
 34 420 199 568 328 568 c 0
 424 568 466 503 466 452 c 0
 466 409 437 377 402 377 c 0
321 202 m 0
 321 253 297 292 241 292 c 0
 175 292 116 222 116 131 c 0
 116 79 147 37 206 37 c 0
 270 37 321 116 321 202 c 0
EndSplineSet
Validated: 1
Layer: 2
SplineSet
402 377 m 4
 368 377 348 399 348 426 c 4
 348 454 370 469 370 494 c 4
 370 513 359 527 328 527 c 4
 236 527 175 406 145 295 c 5
 174 319 213 336 256 336 c 4
 361 336 425 258 425 182 c 4
 425 65 319 -8 221 -8 c 4
 90 -8 34 87 34 195 c 4
 34 415.071761054 198.505553051 568 328 568 c 4
 424 568 466 503 466 452 c 4
 466 409 437 377 402 377 c 4
326 207 m 4
 326 255 299 292 243 292 c 4
 175 292 116 216 116 125 c 4
 116 73 145 37 201 37 c 4
 268 37 326 118 326 207 c 4
EndSplineSet
LCarets2: 1 0
EndChar

StartChar: i_seven
Encoding: 57607 57607 34
Width: 0
VWidth: 0
Flags: HMW
LayerCount: 4
Back
SplineSet
376 420 m 5
 331 429 249 468 203 468 c 4
 173 468 134 455 99 344 c 5
 61 346 l 5
 115 559 l 5
 154 557 l 5
 152 547 151 539 151 533 c 4
 151 525 154 520 162 520 c 4
 179 520 204 559 257 559 c 4
 327 559 324 499 376 499 c 4
 403 499 425 517 438 542 c 5
 481 539 l 5
 406 356 269 234 224 67 c 4
 210 15 178 -6 149 -6 c 4
 121 -6 97 14 97 48 c 4
 97 53 98 58 99 63 c 4
 119 168 257 271 376 420 c 5
EndSplineSet
Fore
SplineSet
376 420 m 1
 331 429 249 468 203 468 c 0
 173 468 134 455 99 344 c 1
 61 346 l 1
 115 559 l 1
 154 557 l 1
 152 547 151 539 151 533 c 0
 151 525 154 520 162 520 c 0
 179 520 204 559 257 559 c 0
 327 559 324 499 376 499 c 0
 403 499 425 517 438 542 c 1
 481 539 l 1
 406 356 269 234 224 67 c 0
 210 15 178 -6 149 -6 c 0
 121 -6 97 14 97 48 c 0
 97 144 259 274 376 420 c 1
EndSplineSet
Validated: 1
EndChar

StartChar: i_eight
Encoding: 57608 57608 35
Width: 0
VWidth: 3220
Flags: HMW
LayerCount: 4
Fore
SplineSet
227 -8 m 4
 109 -8 26 68 26 146 c 4
 26 237 100 284 171 302 c 5
 144 329 124 361 124 405 c 4
 124 503 204 568 299 568 c 4
 399 568 464 504 464 431 c 4
 464 357 411 312 347 288 c 5
 385 256 418 218 418 165 c 4
 418 57 320 -8 227 -8 c 4
85 150 m 4
 85 100 139 42 225 42 c 4
 285 42 336 76 336 125 c 4
 336 185 258 232 210 268 c 5
 152 258 85 223 85 150 c 4
299 519 m 4
 248 519 204 491 204 440 c 4
 204 394 259 355 306 319 c 5
 360 335 405 376 405 435 c 4
 405 483 362 519 299 519 c 4
EndSplineSet
Validated: 1
Layer: 2
SplineSet
221.600895947 -8.30921481734 m 4
 103.634109233 -8.30921481734 20.5356064733 67.7046427662 20.5356064733 145.702278643 c 4
 20.5356064733 156.320148734 21.9280034566 167.120267632 24.7919921875 177.9765625 c 4
 42.9836665029 246.930736803 98.9250708398 285.393993042 166.062094335 302.134902004 c 5
 138.811514922 329.309199046 118.743689196 361.454445718 118.743689196 404.602886754 c 4
 118.743689196 417.61835291 120.569642037 431.634989511 124.575195312 446.818359375 c 4
 143.144934158 517.205636814 210.92893062 567.809425199 294.096572657 567.809425199 c 4
 394.196108658 567.809425199 459.065359991 503.85465403 459.065359991 430.677765823 c 4
 459.065359991 419.294923711 457.561926698 407.666229786 454.48046875 395.986328125 c 4
 441.73896864 347.688556972 397.224274024 308.339888877 341.977955333 287.930931719 c 5
 380.023378999 256.102557566 412.575868439 218.042808001 412.575868439 164.939550111 c 4
 412.575868439 153.073092078 410.950379232 140.4554454 407.397460938 126.98828125 c 4
 384.909737173 41.7472642867 308.333377209 -8.30921481734 221.600895947 -8.30921481734 c 4
80.0589512106 150.350264397 m 4
 80.0589512106 99.9551529931 133.853644108 42.24555851 220.037508263 42.24555851 c 4
 274.942351663 42.24555851 319.521146747 73.0194743451 328.5078125 107.083007812 c 4
 330.127705839 113.223158376 330.885271361 119.234902371 330.885271361 125.120472792 c 4
 330.885271361 184.973138036 252.80780917 231.872052572 205.306378628 268.484386035 c 5
 148.226305918 258.299031614 97.9637750894 229.014705612 82.8447265625 171.705078125 c 4
 80.982041423 164.644352665 80.0589512106 157.488083932 80.0589512106 150.350264397 c 4
293.765126339 519.466908546 m 4
 242.989113149 519.466908546 198.901077107 490.608425156 198.901077107 440.377684147 c 4
 198.901077107 394.497481808 253.561665244 354.670635798 301.332011352 319.319946447 c 5
 350.080407661 333.721167757 385.659970973 368.984988713 396.606445312 410.4765625 c 4
 398.872471184 419.066198089 399.975293236 427.379809713 399.975293236 435.328365844 c 4
 399.975293236 483.031342776 357.307964406 519.466908546 293.765126339 519.466908546 c 4
EndSplineSet
EndChar

StartChar: i_nine
Encoding: 57609 57609 36
Width: 0
VWidth: 0
Flags: HMW
LayerCount: 4
Fore
SplineSet
82 188 m 0
 114 188 134 167 134 138 c 0
 134 112 117 97 117 75 c 0
 117 54 143 35 181 35 c 0
 281 35 330 174 355 268 c 1
 323 246 287 230 246 230 c 0
 143 230 81 301 81 376 c 0
 81 489 183 568 288 568 c 0
 409 568 465 481 465 368 c 0
 465 334 460 298 450 259 c 0
 402 79 288 -8 183 -8 c 0
 80 -8 20 66 20 119 c 0
 20 157 47 188 82 188 c 0
177 356 m 0
 177 308 205 274 260 274 c 0
 329 274 383 344 383 429 c 0
 383 484 355 521 300 521 c 0
 231 521 177 442 177 356 c 0
EndSplineSet
Validated: 1
Layer: 2
SplineSet
81 188 m 4
 113 188 135 168 135 138 c 4
 135 112 116 98 116 74 c 4
 116 53 143 34 180 34 c 4
 280 34 330 175 355 270 c 5
 323 248 287 231 247 231 c 4
 144 231 82 303 82 378 c 4
 82 492 185 574 290 574 c 4
 409 574 466 487 466 375 c 4
 466 340 460 301 449 261 c 4
 401 79 286 -8 182 -8 c 4
 79 -8 20 66 20 118 c 4
 20 157 46 188 81 188 c 4
177 359 m 4
 177 310 204 275 259 275 c 4
 329 275 384 348 384 434 c 4
 384 490 356 529 301 529 c 4
 231 529 177 445 177 359 c 4
EndSplineSet
EndChar

StartChar: endash
Encoding: 8211 8211 38
Width: 0
VWidth: 2000
Flags: W
HStem: 246 56<20 480>
LayerCount: 4
Fore
SplineSet
20 246 m 1
 20 302 l 1
 480 302 l 1
 480 246 l 1
 20 246 l 1
EndSplineSet
Validated: 1
EndChar

StartChar: stop
Encoding: 57371 57371 40
Width: 0
VWidth: 30
Flags: W
AnchorPoint: "chain" 0 760 basemark 0
AnchorPoint: "chain" 0 760 mark 0
LayerCount: 4
Fore
SplineSet
78 416 m 1
 217 277 l 1
 78 138 l 1
 111 105 l 1
 250 244 l 1
 389 105 l 1
 422 138 l 1
 283 277 l 1
 422 416 l 1
 389 449 l 1
 250 310 l 1
 111 449 l 1
 78 416 l 1
0 530 m 1
 500 530 l 1
 500 30 l 1
 0 30 l 1
 0 530 l 1
EndSplineSet
Validated: 1
LCarets2: 5 0 0 0 0 0
EndChar

StartChar: q
Encoding: 113 113 43
Width: 521
VWidth: 1010
Flags: HW
HStem: -34 338<220.016 306.545>
VStem: 425 46<276 1045>
LayerCount: 4
Fore
SplineSet
50 85 m 0
 50 188 182 304 321 304 c 0
 361 304 398 295 425 276 c 1
 425 1045 l 1
 471 1045 l 1
 471 183 l 2
 471 81 339 -34 199 -34 c 0
 119 -34 50 4 50 85 c 0
EndSplineSet
Layer: 2
SplineSet
425 1025 m 5
 471 1025 l 5
 471 163 l 5
 425 163 l 5
 425 1025 l 5
50 65 m 0
 50 168 182 284 321 284 c 0
 402 284 471 246 471 163 c 0
 471 61 339 -54 199 -54 c 0
 119 -54 50 -16 50 65 c 0
EndSplineSet
EndChar

StartChar: equal
Encoding: 61 61 44
Width: 1200
VWidth: 1895
Flags: HW
HStem: 41 56<350 850> 221 56<350 850>
LayerCount: 4
Fore
SplineSet
350 221 m 1
 350 277 l 1
 850 277 l 1
 850 221 l 1
 350 221 l 1
350 41 m 1
 350 97 l 1
 850 97 l 1
 850 41 l 1
 350 41 l 1
EndSplineSet
EndChar

StartChar: e
Encoding: 101 101 45
Width: 752
VWidth: 1010
Flags: HW
HStem: -34 338<220.016 306.545>
VStem: 425 46<276 689> 425 30<981.906 1045> 699 53<240.135 519.914>
LayerCount: 4
Fore
SplineSet
670 209 m 1
 684 268 699 328 699 397 c 0
 699 517 643 625 548 669 c 0
 532 676 500 689 471 689 c 1
 471 183 l 2
 471 81 339 -34 199 -34 c 0
 119 -34 50 4 50 85 c 0
 50 188 182 304 321 304 c 0
 361 304 398 295 425 276 c 1
 425 1045 l 1
 455 1045 l 1
 472 892 595 761 640 705 c 0
 696 634 752 532 752 401 c 0
 752 339 736 244 715 191 c 1
 670 209 l 1
EndSplineSet
Layer: 2
SplineSet
50 65 m 4
 50 168 182 284 321 284 c 4
 402 284 471 246 471 163 c 4
 471 61 339 -54 199 -54 c 4
 119 -54 50 -16 50 65 c 4
670 189 m 5xe0
 684 248 699 308 699 377 c 4xd0
 699 497 643 605 548 649 c 4
 532 656 500 669 471 669 c 6
 425 669 l 13
 425 1025 l 5
 455 1025 l 5
 472 872 595 741 640 685 c 4
 696 614 752 512 752 381 c 4xd0
 752 319 736 224 715 171 c 5
 670 189 l 5xe0
425 935 m 5
 471 935 l 5
 471 163 l 5
 425 163 l 5
 425 935 l 5
EndSplineSet
EndChar

StartChar: s
Encoding: 115 115 46
Width: 762
VWidth: 1010
Flags: HW
HStem: -34 338<220.016 306.545> 19 21G<658 712>
VStem: 425 40<639.125 739 952.995 1042> 685 53<66.8462 326.646 440.962 618.867>
LayerCount: 4
Fore
SplineSet
50 85 m 0xb0
 50 188 182 304 321 304 c 0xb0
 361 304 398 295 425 276 c 1
 425 1042 l 1
 459 1042 l 1
 464 1016 469 989 479 964 c 0
 511 884 543 842 605 780 c 0
 669 712 740 628 740 533 c 0
 740 470 723 427 700 389 c 1
 726 339 738 287 738 228 c 0
 738 141 724 83 700 19 c 1x70
 658 34 l 1
 682 110 685 150 685 228 c 0
 685 321 633 392 575 435 c 0
 544 458 494 471 471 471 c 1
 471 183 l 2
 471 81 339 -34 199 -34 c 0
 119 -34 50 4 50 85 c 0xb0
689 526 m 0
 689 574 670 616 640 654 c 0
 610 693 548 739 465 739 c 1
 467 646 493 619 528 579 c 0
 571 529 625 501 669 440 c 1
 680 462 689 488 689 526 c 0
EndSplineSet
Layer: 2
SplineSet
689 506 m 4xb0
 689 554 670 596 640 634 c 4
 610 673 548 719 465 719 c 6
 425 719 l 13xd0
 425 1022 l 5
 459 1022 l 5
 464 996 469 969 479 944 c 4
 511 864 543 822 605 760 c 4
 669 692 740 608 740 513 c 4
 740 436 715 389 684 345 c 5
 644 366 l 5
 660 410 689 438 689 506 c 4xb0
528 559 m 4
 573 507 630 478 675 411 c 4
 718 348 738 283 738 208 c 4
 738 121 724 63 700 -1 c 5
 658 14 l 5
 682 90 685 130 685 208 c 4
 685 301 633 372 575 415 c 4
 544 438 494 451 471 451 c 6
 425 451 l 5
 425 728 l 29
 465 728 l 21xb0
 465 628 492 600 528 559 c 4
425 604 m 5
 471 604 l 5
 471 163 l 5
 425 163 l 5
 425 604 l 5
50 65 m 4
 50 168 182 284 321 284 c 4
 402 284 471 246 471 163 c 4
 471 61 339 -54 199 -54 c 4
 119 -54 50 -16 50 65 c 4
EndSplineSet
EndChar

StartChar: h
Encoding: 104 104 47
Width: 536
VWidth: 1010
Flags: HW
HStem: -42 51<110.131 260.5> 261 51<303.85 424.948>
VStem: 50 46<17.6805 106.788> 440 46<166.096 253.676 281 1045>
LayerCount: 4
Fore
SplineSet
440 1045 m 1
 486 1045 l 1
 486 187 l 2
 486 126 427 37 386 9 c 0
 347 -19 288 -42 233 -42 c 0
 134 -42 50 -18 50 83 c 0
 50 153 109 234 159 266 c 0
 204 296 280 312 325 312 c 0
 366 312 409 303 440 281 c 1
 440 1045 l 1
443 213 m 0
 443 245 418 261 384 261 c 0
 314 261 237 200 173 154 c 0
 125 117 96 96 96 54 c 0
 96 30 115 9 154 9 c 0
 213 9 299 70 344 101 c 0
 379 126 443 174 443 213 c 0
EndSplineSet
EndChar

StartChar: w
Encoding: 119 119 48
Width: 652
VWidth: 920
Flags: HW
HStem: -38 35<268.03 419.154> 274 34<235.378 379.197>
VStem: 50 149<100.366 207.443> 450 152<62.821 178.631>
LayerCount: 4
Fore
SplineSet
333 -3 m 0
 400 -3 450 16 450 64 c 0
 450 142 423 200 393 245 c 0
 380 264 353 274 306 274 c 0
 254 274 199 250 199 205 c 0
 199 139 226 86 248 41 c 0
 268 -1 291 -3 333 -3 c 0
319 -38 m 0
 189 -38 50 11 50 133 c 0
 50 261 196 308 330 308 c 0
 456 308 602 259 602 137 c 3
 602 8 453 -38 319 -38 c 0
EndSplineSet
EndChar

StartChar: tie
Encoding: 57860 57860 50
Width: 0
VWidth: 1010
Flags: HW
LayerCount: 4
Fore
SplineSet
0 -283 m 3
 -154 -283 -250 -156 -250 -139 c 3
 -250 -133 -242 -126 -236 -126 c 3
 -221 -126 -178 -212 0 -212 c 3
 178 -212 221 -126 236 -126 c 3
 242 -126 250 -133 250 -139 c 3
 250 -156 154 -283 0 -283 c 3
EndSplineSet
EndChar

StartChar: eighth.shortFlag
Encoding: 57861 57861 51
Width: 808
VWidth: 20
Flags: HW
HStem: -34 338<220.016 306.545>
VStem: 425 46<276 689> 425 30<981.906 1045> 699 53<315.296 519.914>
LayerCount: 4
Fore
SplineSet
50 85 m 0xd0
 50 188 182 304 321 304 c 0
 361 304 398 295 425 276 c 1xd0
 425 1045 l 1
 455 1045 l 1xb0
 472 892 596 761 640 705 c 0
 696 634 752 532 752 401 c 0
 752 374 749 340 744 306 c 1
 693 317 l 1
 697 343 699 369 699 397 c 0
 699 517 643 625 548 669 c 0
 533 676 500 689 471 689 c 1
 471 183 l 2
 471 81 339 -34 199 -34 c 0
 119 -34 50 4 50 85 c 0xd0
EndSplineSet
Layer: 2
SplineSet
623 116 m 4
 623 154 652 184 690 184 c 4
 728 184 758 154 758 116 c 4
 758 78 728 49 690 49 c 4
 652 49 623 78 623 116 c 4
548 669 m 0
 533 676 500 689 471 689 c 2
 425 689 l 9
 425 1045 l 1
 455 1045 l 1
 472 892 596 761 640 705 c 0
 696 634 752 532 752 401 c 0
 752 373.541015625 748.861328125 339.610351562 743.541015625 305.721679688 c 1
 692.739257812 317.444335938 l 1
 696.564453125 342.850585938 699 369.194335938 699 397 c 0
 699 517 643 625 548 669 c 0
50 85 m 0
 50 188 182 304 321 304 c 0
 402 304 471 266 471 183 c 0
 471 81 339 -34 199 -34 c 0
 119 -34 50 4 50 85 c 0
425 955 m 1
 471 955 l 1
 471 183 l 1
 425 183 l 1
 425 955 l 1
EndSplineSet
LCarets2: 1 0
EndChar

StartChar: t
Encoding: 116 116 52
Width: 740
VWidth: 1010
Flags: HW
HStem: -34 338<220.016 306.545>
VStem: 425 40<622.25 699 882.705 959 1172.99 1262> 689 51<54.3851 296.543 413.048 571.686 665.158 830.912>
LayerCount: 4
Fore
SplineSet
50 85 m 0
 50 188 182 304 321 304 c 0
 361 304 398 295 425 276 c 1
 425 1262 l 1
 459 1262 l 1
 464 1236 469 1209 479 1184 c 0
 511 1104 543 1062 605 1000 c 0
 669 932 740 848 740 753 c 0
 740 693 725 652 704 616 c 1
 726 578 740 537 740 493 c 0
 740 435 726 394 705 358 c 1
 728 311 738 262 738 208 c 0
 738 121 724 63 700 -1 c 1
 658 14 l 1
 682 90 685 130 685 208 c 0
 685 301 633 372 575 415 c 0
 544 438 494 451 471 451 c 1
 471 183 l 2
 471 81 339 -34 199 -34 c 0
 119 -34 50 4 50 85 c 0
689 746 m 0
 689 794 670 836 640 874 c 0
 610 913 548 959 465 959 c 1
 467 900 496 853 540 806 c 0
 580 764 631 717 671 664 c 1
 681 686 689 710 689 746 c 0
465 699 m 1
 467 641 493 599 528 559 c 0
 573 507 630 478 675 412 c 1
 683 432 689 455 689 486 c 0
 689 534 670 576 640 614 c 0
 610 653 548 699 465 699 c 1
EndSplineSet
Layer: 2
SplineSet
689 726 m 4xb0
 689 774 670 816 640 854 c 4
 610 893 548 939 465 939 c 6
 425 939 l 13xd0
 425 1242 l 5
 459 1242 l 5
 464 1216 469 1189 479 1164 c 4
 511 1084 543 1042 605 980 c 4
 669 912 740 828 740 733 c 4
 740 656 715 609 684 565 c 5
 652.449315022 606 l 5
 668.489006618 639.91545924 689 668.812216942 689 726 c 4xb0
540.16796875 786 m 4
 618.630894141 703.493034199 740 600.621630875 740 473 c 4
 740 396 715 349 684 305 c 5
 644 326 l 5
 660 370 689 398 689 466 c 4xb0
 689 514 670 556 640 594 c 4
 610 633 548 679 465 679 c 6
 425 679 l 5xd0
 425 947 l 13
 465 947 l 5
 465 884 493.51953125 835.052734375 540.16796875 786 c 4
528 539 m 4
 573 487 630 458 675 391 c 4
 718 328 738 263 738 188 c 4
 738 101 724 43 700 -21 c 5
 658 -6 l 5
 682 70 685 110 685 188 c 4
 685 281 633 352 575 395 c 4
 544 418 494 431 471 431 c 6
 425 431 l 5
 425 685 l 29
 465 685 l 21xb0
 465 624 492 580 528 539 c 4
425 584 m 5
 471 584 l 5
 471 163 l 5
 425 163 l 5
 425 584 l 5
50 65 m 4
 50 168 182 284 321 284 c 4
 402 284 471 246 471 163 c 4
 471 61 339 -54 199 -54 c 4
 119 -54 50 -16 50 65 c 4
EndSplineSet
EndChar

StartChar: beamed.NNSN
Encoding: 57904 57904 53
Width: 791
VWidth: 1010
UnlinkRmOvrlpSave: 1
Flags: HW
HStem: -34 338<220.016 306.545> 835 160<425 771>
VStem: 425 46<276 835>
LayerCount: 4
Fore
SplineSet
425 995 m 1
 771 995 l 1
 771 835 l 1
 425 835 l 1
 425 995 l 1
50 85 m 0
 50 188 182 304 321 304 c 0
 361 304 398 295 425 276 c 1
 425 995 l 1
 471 995 l 1
 471 183 l 2
 471 81 339 -34 199 -34 c 0
 119 -34 50 4 50 85 c 0
EndSplineSet
EndChar

StartChar: beamed.LNSN
Encoding: 57905 57905 54
Width: 742
VWidth: 1010
UnlinkRmOvrlpSave: 1
Flags: HW
HStem: -34 338<171.016 257.545> 835 160<-156 722>
VStem: 376 46<276 995>
LayerCount: 4
Fore
SplineSet
-176 995 m 1
 722 995 l 1
 722 835 l 1
 -176 835 l 1
 -176 995 l 1
1 85 m 0
 1 188 133 304 272 304 c 0
 312 304 349 295 376 276 c 1
 376 995 l 1
 422 995 l 1
 422 183 l 2
 422 81 290 -34 150 -34 c 0
 70 -34 1 4 1 85 c 0
EndSplineSet
EndChar

StartChar: beamed.LNNN
Encoding: 57906 57906 55
Width: 472
VWidth: 1010
UnlinkRmOvrlpSave: 1
Flags: HW
HStem: -34 338<171.016 257.545> 835 160<-156 422>
VStem: 376 46<276 995>
LayerCount: 4
Fore
SplineSet
-176 995 m 5
 422 995 l 1
 422 835 l 1
 -176 835 l 5
 -176 995 l 5
1 85 m 0
 1 188 133 304 272 304 c 0
 312 304 349 295 376 276 c 1
 376 995 l 1
 422 995 l 1
 422 183 l 2
 422 81 290 -34 150 -34 c 0
 70 -34 1 4 1 85 c 0
EndSplineSet
EndChar

StartChar: beamed.NNSS
Encoding: 57907 57907 56
Width: 721
VWidth: 1010
UnlinkRmOvrlpSave: 1
Flags: HW
HStem: -34 338<220.016 306.545> 565 160<425 771> 835 160<425 771>
VStem: 425 346<565 725 835 995> 425 46<276 565 725 835>
LayerCount: 4
Fore
SplineSet
425 725 m 1xf0
 771 725 l 1
 771 565 l 1
 425 565 l 1
 425 725 l 1xf0
425 995 m 1
 771 995 l 1
 771 835 l 1
 425 835 l 1
 425 995 l 1
50 85 m 0
 50 188 182 304 321 304 c 0
 361 304 398 295 425 276 c 1xe8
 425 995 l 1xf0
 471 995 l 1
 471 183 l 2xe8
 471 81 339 -34 199 -34 c 0
 119 -34 50 4 50 85 c 0
EndSplineSet
EndChar

StartChar: beamed.LLSS
Encoding: 57908 57908 57
Width: 672
VWidth: 1010
UnlinkRmOvrlpSave: 1
Flags: HW
HStem: -34 338<171.016 257.545> 565 160<-156 722> 835 160<-156 722>
VStem: 376 46<276 995>
LayerCount: 4
Fore
SplineSet
-176 725 m 5
 722 725 l 1
 722 565 l 1
 -176 565 l 5
 -176 725 l 5
-176 995 m 5
 722 995 l 1
 722 835 l 1
 -176 835 l 5
 -176 995 l 5
1 85 m 0
 1 188 133 304 272 304 c 0
 312 304 349 295 376 276 c 1
 376 995 l 1
 422 995 l 1
 422 183 l 2
 422 81 290 -34 150 -34 c 0
 70 -34 1 4 1 85 c 0
EndSplineSet
EndChar

StartChar: beamed.LLNN
Encoding: 57909 57909 58
Width: 472
VWidth: 1010
UnlinkRmOvrlpSave: 1
Flags: HW
HStem: -34 338<171.016 257.545> 565 160<-156 422> 835 160<-156 422>
VStem: 376 46<276 995>
LayerCount: 4
Fore
SplineSet
-176 725 m 5
 422 725 l 1
 422 565 l 1
 -176 565 l 5
 -176 725 l 5
-176 995 m 5
 422 995 l 1
 422 835 l 1
 -176 835 l 5
 -176 995 l 5
1 85 m 0
 1 188 133 304 272 304 c 0
 312 304 349 295 376 276 c 1
 376 995 l 1
 422 995 l 1
 422 183 l 2
 422 81 290 -34 150 -34 c 0
 70 -34 1 4 1 85 c 0
EndSplineSet
EndChar

StartChar: beamed.LNSS
Encoding: 57910 57910 59
Width: 672
VWidth: 1010
UnlinkRmOvrlpSave: 1
Flags: HW
HStem: -34 338<171.016 257.545> 565 160<376 722> 835 160<-156 722>
VStem: 376 46<276 565 725 995>
LayerCount: 4
Fore
SplineSet
376 725 m 1
 722 725 l 1
 722 565 l 1
 376 565 l 1
 376 725 l 1
-176 995 m 1
 722 995 l 1
 722 835 l 1
 -176 835 l 1
 -176 995 l 1
1 85 m 0
 1 188 133 304 272 304 c 0
 312 304 349 295 376 276 c 1
 376 995 l 1
 422 995 l 1
 422 183 l 2
 422 81 290 -34 150 -34 c 0
 70 -34 1 4 1 85 c 0
EndSplineSet
EndChar

StartChar: beamed.LLSN
Encoding: 57911 57911 60
Width: 672
VWidth: 1010
UnlinkRmOvrlpSave: 1
Flags: HW
HStem: -34 338<171.016 257.545> 565 160<-156 422> 835 160<-156 722>
VStem: 376 46<276 995>
LayerCount: 4
Fore
SplineSet
-176 725 m 1
 422 725 l 1
 422 565 l 1
 -176 565 l 1
 -176 725 l 1
-176 995 m 1
 722 995 l 1
 722 835 l 1
 -176 835 l 1
 -176 995 l 1
1 85 m 0
 1 188 133 304 272 304 c 0
 312 304 349 295 376 276 c 1
 376 995 l 1
 422 995 l 1
 422 183 l 2
 422 81 290 -34 150 -34 c 0
 70 -34 1 4 1 85 c 0
EndSplineSet
EndChar

StartChar: beamed.LSSN
Encoding: 57912 57912 61
Width: 672
VWidth: 1010
UnlinkRmOvrlpSave: 1
Flags: HW
HStem: -34 338<171.016 257.545> 565 160<76 422> 835 160<-156 722>
VStem: 376 46<276 995>
LayerCount: 4
Fore
SplineSet
76 725 m 1
 422 725 l 1
 422 565 l 1
 76 565 l 1
 76 725 l 1
-176 995 m 1
 722 995 l 1
 722 835 l 1
 -176 835 l 1
 -176 995 l 1
1 85 m 0
 1 188 133 304 272 304 c 0
 312 304 349 295 376 276 c 1
 376 995 l 1
 422 995 l 1
 422 183 l 2
 422 81 290 -34 150 -34 c 0
 70 -34 1 4 1 85 c 0
EndSplineSet
EndChar

StartChar: beamed.LSNN
Encoding: 57913 57913 62
Width: 472
VWidth: 1010
UnlinkRmOvrlpSave: 1
Flags: HW
HStem: -34 338<171.016 257.545> 565 160<76 422> 835 160<-156 422>
VStem: 376 46<276 995>
LayerCount: 4
Fore
SplineSet
76 725 m 1
 422 725 l 1
 422 565 l 1
 76 565 l 1
 76 725 l 1
-176 995 m 5
 422 995 l 1
 422 835 l 1
 -176 835 l 5
 -176 995 l 5
1 85 m 0
 1 188 133 304 272 304 c 0
 312 304 349 295 376 276 c 1
 376 995 l 1
 422 995 l 1
 422 183 l 2
 422 81 290 -34 150 -34 c 0
 70 -34 1 4 1 85 c 0
EndSplineSet
EndChar

StartChar: period.beamed
Encoding: 57914 57914 63
Width: 230
VWidth: 20
Flags: HW
HStem: 75 143<-152.5 -51> 835 160<-50 220>
VStem: -173 143<95.5 197>
LayerCount: 4
Fore
SplineSet
-50 995 m 1
 280 995 l 1
 280 835 l 1
 -50 835 l 1
 -50 995 l 1
EndSplineSet
Refer: 100 57874 N 1 0 0 1 -275 20 2
EndChar

StartChar: sixteenth.shortFlag
Encoding: 57862 57862 64
Width: 808
VWidth: 1010
Flags: HW
HStem: -34 338<220.016 306.545>
VStem: 425 40<779.125 879 1092.99 1182> 685 53<304 466.556 580.962 758.867>
LayerCount: 4
Fore
SplineSet
50 85 m 0
 50 188 182 304 321 304 c 0
 361 304 398 295 425 276 c 1
 425 1182 l 1
 459 1182 l 1
 464 1156 469 1129 479 1104 c 0
 511 1024 543 982 605 920 c 0
 669 852 740 768 740 673 c 0
 740 610 723 567 700 529 c 1
 726 479 738 427 738 368 c 0
 738 341 737 317 734 295 c 1
 684 304 l 1
 685 323 685 344 685 368 c 0
 685 461 633 532 575 575 c 0
 544 598 494 611 471 611 c 1
 471 183 l 2
 471 81 339 -34 199 -34 c 0
 119 -34 50 4 50 85 c 0
689 666 m 0
 689 714 670 756 640 794 c 0
 610 833 548 879 465 879 c 1
 467 786 493 759 528 719 c 0
 571 669 625 641 669 580 c 1
 680 602 689 628 689 666 c 0
EndSplineSet
Layer: 2
SplineSet
689 666 m 4xb0
 689 714 670 756 640 794 c 4
 610 833 548 879 465 879 c 6
 425 879 l 13xd0
 425 1182 l 5
 459 1182 l 5
 464 1156 469 1129 479 1104 c 4
 511 1024 543 982 605 920 c 4
 669 852 740 768 740 673 c 4
 740 596 715 549 684 505 c 5
 644 526 l 5
 660 570 689 598 689 666 c 4xb0
683.591796875 304.088867188 m 5
 684.7109375 323.204101562 685 343.768554688 685 368 c 4
 685 461 633 532 575 575 c 4
 544 598 494 611 471 611 c 6
 425 611 l 5
 425 888 l 29
 465 888 l 21xb0
 465 788 492 760 528 719 c 4
 573 667 630 638 675 571 c 4
 718 508 738 443 738 368 c 4
 738 341.268554688 736.678710938 317.275390625 734.151367188 295.00390625 c 5
 683.591796875 304.088867188 l 5
425 764 m 5
 471 764 l 5
 471 183 l 5
 425 183 l 5
 425 764 l 5
50 85 m 4
 50 188 182 304 321 304 c 4
 402 304 471 266 471 183 c 4
 471 81 339 -34 199 -34 c 4
 119 -34 50 4 50 85 c 4
EndSplineSet
EndChar

StartChar: thirtysecond.shortFlag
Encoding: 57863 57863 65
Width: 808
VWidth: 1010
Flags: HW
HStem: -34 338<220.016 306.545>
VStem: 425 40<732.25 809 992.705 1069 1282.99 1372> 689 51<291 405.864 523.048 681.686 775.158 940.912>
LayerCount: 4
Fore
SplineSet
50 85 m 0
 50 188 182 304 321 304 c 0
 361 304 398 295 425 276 c 1
 425 1372 l 1
 459 1372 l 1
 464 1346 469 1319 479 1294 c 0
 511 1214 543 1172 605 1110 c 0
 669 1042 740 958 740 863 c 0
 740 803 725 762 704 726 c 1
 726 688 740 647 740 603 c 0
 740 545 726 504 705 468 c 1
 727 421 737 372 738 318 c 0
 738 307 738 297 737 287 c 1
 685 291 l 1
 685 300 685 309 685 318 c 0
 684 411 633 482 575 525 c 0
 544 548 494 561 471 561 c 1
 471 183 l 2
 471 81 339 -34 199 -34 c 0
 119 -34 50 4 50 85 c 0
689 856 m 0
 689 904 670 946 640 984 c 0
 610 1023 548 1069 465 1069 c 1
 467 1010 495 963 540 916 c 0
 580 874 630 827 671 774 c 1
 681 796 689 821 689 856 c 0
675 522 m 1
 683 542 689 565 689 596 c 0
 689 644 670 686 640 724 c 0
 610 763 548 809 465 809 c 1
 467 751 493 709 528 669 c 0
 573 617 630 588 675 522 c 1
EndSplineSet
Layer: 2
SplineSet
684.939453125 291.08203125 m 5
 685 299.6328125 685 308.5859375 685 318 c 4
 684 411 633 482 575 525 c 4
 544 548 494 561 471 561 c 6
 425 561 l 5
 425 815 l 29
 465 815 l 21xb0
 465 754 492 710 528 669 c 4
 573 617 630 588 675 521 c 4
 718 458 737 393 738 318 c 4
 738 307.223632812 737.840820312 296.92578125 737.458984375 287.041992188 c 5
 684.939453125 291.08203125 l 5
689 856 m 4xb0
 689 904 670 946 640 984 c 4
 610 1023 548 1069 465 1069 c 6
 425 1069 l 13xd0
 425 1372 l 5
 459 1372 l 5
 464 1346 469 1319 479 1294 c 4
 511 1214 543 1172 605 1110 c 4
 669 1042 740 958 740 863 c 4
 740 786 715 739 684 695 c 5
 652 736 l 5
 668 770 689 799 689 856 c 4xb0
540 916 m 4
 618 833 740 731 740 603 c 4
 740 526 715 479 684 435 c 5
 644 456 l 5
 660 500 689 528 689 596 c 4xb0
 689 644 670 686 640 724 c 4
 610 763 548 809 465 809 c 6
 425 809 l 5xd0
 425 1077 l 13
 465 1077 l 5
 465 1014 493 965 540 916 c 4
425 714 m 5
 471 714 l 5
 471 183 l 5
 425 183 l 5
 425 714 l 5
50 85 m 4
 50 188 182 304 321 304 c 4
 402 304 471 266 471 183 c 4
 471 81 339 -34 199 -34 c 4
 119 -34 50 4 50 85 c 4
661 251 m 5
 670 253 680 254 690 254 c 4
 701 254 711 253 721 251 c 5
 714 223 l 5
 706 225 699 226 690 226 c 4
 682 226 671 225 666 223 c 5
 661 251 l 5
783 175 m 5
 776 188 761 202 749 209 c 5
 764 232 l 5
 772 227 781 221 788 214 c 4
 795 207 801 198 807 189 c 5
 783 175 l 5
824 146 m 5
 826 137 829 126 829 116 c 4
 829 106 826 96 824 85 c 5
 797 92 l 5
 799 100 800 108 800 116 c 4
 800 124 798 134 797 140 c 5
 824 146 l 5
749 23 m 5
 763 31 774 45 783 57 c 5
 806 42 l 5
 801 34 795 25 788 18 c 4
 781 11 772 5 763 -1 c 5
 749 23 l 5
720 -18 m 5
 711 -20 700 -23 690 -23 c 4
 680 -23 670 -20 659 -18 c 5
 666 9 l 5
 674 7 682 6 690 6 c 4
 698 6 708 8 714 9 c 5
 720 -18 l 5
597 57 m 5
 605 43 619 32 631 23 c 5
 616 0 l 5
 608 5 599 11 592 18 c 4
 585 25 579 34 573 43 c 5
 597 57 l 5
556 86 m 5
 554 95 551 106 551 116 c 4
 551 126 554 136 556 147 c 5
 583 140 l 5
 581 132 580 124 580 116 c 4
 580 108 582 98 583 92 c 5
 556 86 l 5
631 209 m 5
 617 201 606 187 597 175 c 5
 574 190 l 5
 579 198 585 207 592 214 c 4
 599 221 608 227 617 233 c 5
 631 209 l 5
EndSplineSet
EndChar

StartChar: uniE208
Encoding: 57864 57864 66
Width: 808
VWidth: 20
Flags: HW
HStem: -23 29<664.833 715> 92 48<556 583 797 824> 226 28<664.683 715.12>
VStem: 551 29<91 141.167> 666 48<-18 9 223 251> 800 29<90.8333 141>
CounterMasks: 1 1c
LayerCount: 4
Fore
SplineSet
574 190 m 5
 579 198 585 207 592 214 c 4
 599 221 608 227 617 233 c 5
 631 209 l 5
 624 205 618 200 612 194 c 4
 606 188 601 180 597 175 c 5
 574 190 l 5
556 86 m 5
 554 95 551 106 551 116 c 4
 551 126 554 136 556 147 c 5
 583 140 l 5
 581 132 580 124 580 116 c 4
 580 108 582 98 583 92 c 5
 556 86 l 5
616 0 m 5
 608 5 599 11 592 18 c 4
 585 25 579 34 573 43 c 5
 597 57 l 5
 601 50 606 44 612 38 c 4
 618 32 626 27 631 23 c 5
 616 0 l 5
720 -18 m 5
 711 -20 700 -23 690 -23 c 4
 680 -23 670 -20 659 -18 c 5
 666 9 l 5
 674 7 682 6 690 6 c 4
 698 6 708 8 714 9 c 5
 720 -18 l 5
806 42 m 5
 801 34 795 25 788 18 c 4
 781 11 772 5 763 -1 c 5
 749 23 l 5
 756 27 762 32 768 38 c 4
 774 44 779 52 783 57 c 5
 806 42 l 5
824 146 m 5
 826 137 829 126 829 116 c 4
 829 106 826 96 824 85 c 5
 797 92 l 5
 799 100 800 108 800 116 c 4
 800 124 798 134 797 140 c 5
 824 146 l 5
764 232 m 5
 772 227 781 221 788 214 c 4
 795 207 801 198 807 189 c 5
 783 175 l 5
 779 182 774 188 768 194 c 4
 762 200 754 206 749 209 c 5
 764 232 l 5
661 251 m 5
 670 253 680 254 690 254 c 4
 701 254 711 253 721 251 c 5
 714 223 l 5
 706 225 699 226 690 226 c 4
 682 226 671 225 666 223 c 5
 661 251 l 5
EndSplineSet
Layer: 2
SplineSet
843 72 m 1
 828 36 l 1
 690 116 l 1
 843 72 l 1
828 194 m 1
 844 157 l 1
 690 116 l 1
 828 194 l 1
734 269 m 1
 770 254 l 1
 690 116 l 1
 734 269 l 1
537 160 m 1
 552 196 l 1
 690 116 l 1
 537 160 l 1
552 38 m 1
 536 75 l 1
 690 116 l 1
 552 38 l 1
646 -37 m 1
 610 -22 l 1
 690 116 l 1
 646 -37 l 1
768 -22 m 1
 731 -38 l 1
 690 116 l 1
 768 -22 l 1
612 254 m 1
 649 270 l 1
 690 116 l 1
 612 254 l 1
582 116 m 0
 582 56 630 8 690 8 c 0
 750 8 800 56 800 116 c 0
 800 176 750 226 690 226 c 0
 630 226 582 176 582 116 c 0
554 116 m 0
 554 192 614 254 690 254 c 0
 766 254 828 192 828 116 c 0
 828 40 766 -20 690 -20 c 0
 614 -20 554 40 554 116 c 0
EndSplineSet
EndChar

StartChar: zero.tuplet
Encoding: 57610 57610 67
Width: 0
VWidth: 0
Flags: HW
HStem: -7 41<-47 55> 445 41<42 140>
VStem: -141 72<77 239> 162 74<234 401>
LayerCount: 4
Back
SplineSet
82.080078125 485.640625 m 4
 176.130859375 485.640625 225.719726562 401.849609375 225.719726562 301.815429688 c 4
 225.719726562 137.655273438 117.990234375 -6.83984375 3.419921875 -6.83984375 c 4
 -89.775390625 -6.83984375 -141.075195312 76.0947265625 -141.075195312 176.984375 c 4
 -141.075195312 340.290039062 -30.7802734375 485.640625 82.080078125 485.640625 c 4
85.5 446.309570312 m 4
 31.634765625 446.309570312 -8.5498046875 373.634765625 -35.91015625 270.180664062 c 4
 -47.025390625 224.865234375 -63.26953125 159.030273438 -63.26953125 118.844726562 c 4
 -63.26953125 67.544921875 -46.169921875 32.490234375 0 32.490234375 c 4
 53.865234375 32.490234375 91.484375 100.03515625 118.844726562 203.490234375 c 4
 130.815429688 250.515625 147.059570312 318.915039062 147.059570312 360.809570312 c 4
 147.059570312 410.400390625 129.959960938 446.309570312 85.5 446.309570312 c 4
EndSplineSet
Fore
SplineSet
82.080078125 485.640625 m 0
 176.130859375 485.640625 225.719726562 401.849609375 225.719726562 301.815429688 c 0
 225.719726562 137.655273438 117.990234375 -6.83984375 3.419921875 -6.83984375 c 0
 -89.775390625 -6.83984375 -141.075195312 76.0947265625 -141.075195312 176.984375 c 0
 -141.075195312 340.290039062 -30.7802734375 485.640625 82.080078125 485.640625 c 0
85.5 443.309570312 m 0
 31.634765625 443.309570312 -13.5498046875 373.634765625 -40.91015625 270.180664062 c 0
 -52.025390625 224.865234375 -65.26953125 159.030273438 -65.26953125 118.844726562 c 0
 -65.26953125 67.544921875 -46.169921875 35.490234375 0 35.490234375 c 0
 53.865234375 35.490234375 96.484375 100.03515625 123.844726562 203.490234375 c 0
 135.815429688 250.515625 149.059570312 318.915039062 149.059570312 360.809570312 c 4
 149.059570312 410.400390625 129.959960938 443.309570312 85.5 443.309570312 c 0
EndSplineSet
EndChar

StartChar: one.tuplet
Encoding: 57611 57611 68
Width: 0
VWidth: 0
Flags: HW
HStem: 0 36<-88 -12 93 155>
VStem: -94 283
LayerCount: 4
Back
SplineSet
92.4345703125 95.759765625 m 6
 90.724609375 88.0654296875 89.869140625 82.080078125 89.869140625 76.0947265625 c 4
 89.869140625 47.025390625 112.955078125 35.91015625 138.60546875 35.91015625 c 6
 164.255859375 35.91015625 l 21
 159.125 0 l 13
 -93.955078125 0 l 21
 -88.8251953125 35.91015625 l 13
 -61.46484375 35.91015625 l 6
 -30.6845703125 35.91015625 3.515625 54.7197265625 14.630859375 97.4697265625 c 6
 84.740234375 358.244140625 l 6
 85.5947265625 363.375 86.4501953125 367.650390625 86.4501953125 371.069335938 c 4
 86.4501953125 380.474609375 81.3193359375 384.75 72.76953125 384.75 c 4
 66.78515625 384.75 59.08984375 383.040039062 50.5400390625 379.619140625 c 6
 -3.3251953125 359.955078125 l 5
 -15.294921875 388.169921875 l 13
 133.474609375 471.959960938 l 21
 193.325195312 471.959960938 l 13
 92.4345703125 95.759765625 l 6
EndSplineSet
Fore
SplineSet
88 96 m 2
 86 88 86 82 86 76 c 0
 86 48 109 36 135 36 c 2
 161 36 l 17
 155 0 l 9
 -94 0 l 17
 -88 36 l 9
 -62 36 l 2
 -31 36 4 55 14 98 c 2
 85 356 l 2
 86 361 86 366 86 370 c 0
 86 379 82 387 73 387 c 0
 66 387 60 385 50 382 c 2
 -16 358 l 1
 -28 389 l 9
 134 472 l 17
 189 472 l 9
 88 96 l 2
EndSplineSet
EndChar

StartChar: two.tuplet
Encoding: 57612 57612 69
Width: 0
VWidth: 0
Flags: HW
HStem: -10 76<30 145> 447 38<24 142>
VStem: -79 86<330 411> 165 86<300 419> 175 30<106 129>
LayerCount: 4
Back
SplineSet
-48.640625 97.4697265625 m 5
 20.615234375 94.0498046875 36.005859375 74.384765625 96.7099609375 74.384765625 c 4
 136.89453125 74.384765625 156.559570312 94.0498046875 170.240234375 135.08984375 c 5
 200.165039062 129.10546875 l 5
 197.599609375 56.4306640625 165.96484375 -9.4052734375 100.130859375 -9.4052734375 c 4
 34.294921875 -9.4052734375 -10.1650390625 51.2998046875 -65.740234375 51.2998046875 c 4
 -95.6650390625 51.2998046875 -109.344726562 35.0556640625 -122.169921875 5.130859375 c 5
 -156.369140625 5.984375 l 5
 -138.415039062 78.66015625 -52.0595703125 155.609375 12.919921875 191.51953125 c 4
 115.51953125 253.934570312 151.430664062 296.684570312 151.430664062 369.359375 c 4
 151.430664062 421.515625 123.21484375 448.01953125 75.3349609375 448.01953125 c 4
 36.005859375 448.01953125 6.9345703125 427.5 6.9345703125 402.705078125 c 4
 6.9345703125 387.315429688 22.3251953125 377.055664062 22.3251953125 351.405273438 c 4
 22.3251953125 320.625 2.66015625 299.25 -27.265625 299.25 c 4
 -59.755859375 299.25 -78.5654296875 320.625 -78.5654296875 351.405273438 c 4
 -78.5654296875 414.674804688 -11.01953125 485.640625 83.884765625 485.640625 c 4
 177.080078125 485.640625 247.190429688 424.934570312 247.190429688 349.694335938 c 4
 247.190429688 258.209960938 161.690429688 221.444335938 91.580078125 187.244140625 c 4
 72.76953125 177.83984375 5.224609375 155.609375 -48.640625 97.4697265625 c 5
EndSplineSet
Fore
SplineSet
-45 97 m 1
 25 94 36 74 97 74 c 0
 137 74 157 94 170 135 c 1
 200 129 l 1
 198 56 166 -9 100 -9 c 0
 34 -9 -6 51 -62 51 c 0
 -92 51 -105 35 -118 5 c 1
 -156 6 l 1
 -138 79 -52 156 13 192 c 0
 116 254 158 297 158 369 c 0
 158 422 123 446 75 446 c 0
 36 446 7 428 7 403 c 0
 7 387 22 377 22 351 c 0
 22 321 3 299 -27 299 c 0
 -60 299 -79 321 -79 351 c 0
 -79 415 -8 486 87 486 c 0
 180 486 247 425 247 350 c 0
 247 258 164 221 94 187 c 0
 75 178 9 156 -45 97 c 1
EndSplineSet
Layer: 2
SplineSet
-48 98 m 5xf0
 21 94 34 66 95 66 c 4
 135 66 162 94 175 135 c 5
 205 129 l 5xe8
 202 56 164 -10 98 -10 c 4
 32 -10 -9 51 -64 51 c 4
 -94 51 -107 35 -120 5 c 5
 -157 6 l 5
 -139 79 -56 156 10 192 c 4
 113 254 165 297 165 370 c 4
 165 418 140 447 86 447 c 4
 47 447 7 428 7 403 c 4
 7 388 22 378 22 352 c 4
 22 322 2 299 -28 299 c 4
 -60 299 -79 322 -79 352 c 4
 -79 415 -6 485 94 485 c 4
 189 485 252 427 252 352 c 4
 252 264 161 221 91 187 c 4
 73 177 5 156 -48 98 c 5xf0
EndSplineSet
EndChar

StartChar: three.tuplet
Encoding: 57613 57613 70
Width: 0
VWidth: 0
Flags: HW
HStem: -7 41<-62 74> 235 32<10 46> 451 34<31 146>
VStem: -153 78<57 122> -61 86<359 432> 120 79<79 188> 170 78<316 422>
LayerCount: 4
Back
SplineSet
-90.1552734375 197.505859375 m 0
 -64.505859375 197.505859375 -45.6943359375 180.405273438 -45.6943359375 155.609375 c 0
 -45.6943359375 117.134765625 -80.75 112.859375 -80.75 80.369140625 c 0
 -80.75 54.7197265625 -44.83984375 32.490234375 -3.7998046875 32.490234375 c 0
 48.35546875 32.490234375 101.365234375 76.9501953125 101.365234375 147.059570312 c 0
 101.365234375 191.51953125 72.294921875 229.140625 -5.509765625 238.544921875 c 1
 0.474609375 268.469726562 l 1
 0.474609375 268.469726562 26.125 268.469726562 37.240234375 269.325195312 c 0
 108.205078125 272.744140625 154.375 313.78515625 154.375 379.619140625 c 0
 154.375 424.934570312 121.030273438 452.294921875 74.859375 452.294921875 c 0
 44.080078125 452.294921875 24.4150390625 437.759765625 24.4150390625 421.515625 c 0
 24.4150390625 407.834960938 38.0947265625 400.140625 38.0947265625 378.765625 c 0
 38.0947265625 349.694335938 18.4306640625 326.609375 -10.640625 326.609375 c 0
 -38 326.609375 -57.6650390625 345.419921875 -57.6650390625 376.200195312 c 0
 -57.6650390625 436.905273438 11.58984375 485.640625 88.5400390625 485.640625 c 0
 178.315429688 485.640625 238.165039062 425.790039062 238.165039062 364.23046875 c 0
 238.165039062 281.294921875 168.055664062 252.224609375 118.46484375 243.674804688 c 1
 116.755859375 234.26953125 l 1
 158.650390625 210.330078125 189.430664062 174.419921875 189.430664062 127.39453125 c 0
 189.430664062 39.330078125 116.755859375 -6.83984375 27.8349609375 -6.83984375 c 0
 -86.734375 -6.83984375 -155.134765625 54.7197265625 -155.134765625 123.119140625 c 0
 -155.134765625 165.869140625 -124.35546875 197.505859375 -90.1552734375 197.505859375 c 0
EndSplineSet
Fore
SplineSet
85 451 m 0
 132 451 161 425 161 380 c 0
 161 314 118 268 47 265 c 0
 36 264 10 264 10 264 c 1
 4 232 l 1
 75.1131953428 222.882923674 111 192 111 147 c 0xfc
 111 77 71 34 5 34 c 0
 -38 34 -75 51 -75 80 c 0xfc
 -75 108 -47 117 -47 149 c 0
 -47 176 -65 192 -90 192 c 0
 -126 192 -153 160 -153 119 c 0
 -153 52 -88 -7 28 -7 c 0
 114 -7 194 39 194 127 c 0
 194 175 163 204 121 229 c 1
 123 238 l 1
 172 246 243 281 243 364 c 0xfa
 243 426 176.002346187 485.640625 88.5400390625 485.640625 c 3
 11.58984375 485.640625 -57.6650390625 436.905273438 -57.6650390625 376.200195312 c 0
 -57.6650390625 345.419921875 -38 326.609375 -10.640625 326.609375 c 0
 18.4306640625 326.609375 38.0947265625 349.694335938 38.0947265625 378.765625 c 0
 38.0947265625 400.140625 24.4150390625 407.834960938 24.4150390625 421.515625 c 0
 24.4150390625 437.759765625 44 451 85 451 c 0
EndSplineSet
EndChar

StartChar: four.tuplet
Encoding: 57614 57614 71
Width: 0
VWidth: 0
Flags: HW
HStem: 0 34<-25 38 140 186> 140 42<-94 73 162 244>
LayerCount: 4
Back
SplineSet
142.21484375 141.930664062 m 5
 126.825195312 82.080078125 l 6
 125.115234375 76.9501953125 125.115234375 72.6748046875 125.115234375 68.400390625 c 4
 125.115234375 41.89453125 152.474609375 34.2001953125 181.544921875 34.2001953125 c 5
 176.415039062 0 l 5
 -39.044921875 0 l 5
 -33.9150390625 34.2001953125 l 5
 -20.234375 34.2001953125 l 6
 3.705078125 34.2001953125 37.9052734375 46.169921875 48.1650390625 82.080078125 c 5
 63.5556640625 141.930664062 l 5
 -156.180664062 141.930664062 l 5
 -151.049804688 176.130859375 l 5
 -64.6943359375 275.309570312 -8.265625 359.099609375 50.73046875 471.959960938 c 5
 165.299804688 471.959960938 l 5
 80.6552734375 360.809570312 24.224609375 311.219726562 -98.0400390625 181.259765625 c 5
 74.669921875 181.259765625 l 5
 99.46484375 273.599609375 l 5
 200.35546875 357.390625 l 5
 153.330078125 181.259765625 l 5
 231.990234375 181.259765625 l 5
 225.150390625 141.930664062 l 5
 142.21484375 141.930664062 l 5
EndSplineSet
Fore
SplineSet
142.21484375 141.930664062 m 1
 126.825195312 82.080078125 l 2
 125.115234375 76.9501953125 125.115234375 72.6748046875 125.115234375 68.400390625 c 0
 125.115234375 41.89453125 152.474609375 34.2001953125 181.544921875 34.2001953125 c 1
 176.415039062 0 l 1
 -39.044921875 0 l 1
 -33.9150390625 34.2001953125 l 1
 -20.234375 34.2001953125 l 2
 3.705078125 34.2001953125 37.9052734375 46.169921875 48.1650390625 82.080078125 c 1
 63.5556640625 141.930664062 l 1
 -156.180664062 141.930664062 l 1
 -151.049804688 176.130859375 l 1
 -64.6943359375 275.309570312 -8.265625 359.099609375 50.73046875 471.959960938 c 1
 165.299804688 471.959960938 l 1
 80.6552734375 360.809570312 24.224609375 311.219726562 -98.0400390625 181.259765625 c 1
 74.669921875 181.259765625 l 1
 99.46484375 273.599609375 l 1
 200.35546875 357.390625 l 1
 153.330078125 181.259765625 l 1
 231.990234375 181.259765625 l 1
 225.150390625 141.930664062 l 1
 142.21484375 141.930664062 l 1
EndSplineSet
EndChar

StartChar: five.tuplet
Encoding: 57615 57615 72
Width: 0
VWidth: 0
Flags: HW
HStem: -5 37<-70 55> 257 41<-29 96> 386 76<-3 186>
VStem: -155 81<49 137> 125 79<98 230>
LayerCount: 4
Back
SplineSet
-9.1025390625 -5.130859375 m 4
 -104.0078125 -5.130859375 -156.163085938 55.5751953125 -156.163085938 107.73046875 c 4
 -156.163085938 150.48046875 -131.368164062 175.275390625 -100.587890625 175.275390625 c 4
 -70.6630859375 175.275390625 -52.7080078125 157.319335938 -52.7080078125 129.10546875 c 4
 -52.7080078125 87.2099609375 -79.212890625 84.64453125 -79.212890625 61.5595703125 c 4
 -79.212890625 48.734375 -56.1279296875 32.490234375 -19.3623046875 32.490234375 c 4
 44.7626953125 32.490234375 105.466796875 97.4697265625 105.466796875 186.390625 c 4
 105.466796875 235.98046875 76.3974609375 263.33984375 25.951171875 263.33984375 c 4
 -7.3935546875 263.33984375 -36.462890625 251.369140625 -63.8232421875 232.559570312 c 5
 -82.6328125 246.240234375 l 13
 -15.943359375 475.380859375 l 5
 47.326171875 466.830078125 89.2216796875 461.700195312 152.4921875 461.700195312 c 4
 178.141601562 461.700195312 202.08203125 463.41015625 232.862304688 466.830078125 c 5
 240.556640625 454.005859375 l 5
 203.791992188 411.255859375 155.912109375 379.619140625 84.091796875 379.619140625 c 4
 49.8916015625 379.619140625 30.2265625 384.75 -3.9736328125 389.880859375 c 13
 -33.04296875 287.280273438 l 21
 -7.3935546875 295.830078125 7.9970703125 304.380859375 48.181640625 304.380859375 c 4
 129.407226562 304.380859375 194.387695312 254.790039062 194.387695312 172.709960938 c 4
 194.387695312 61.5595703125 87.5126953125 -5.130859375 -9.1025390625 -5.130859375 c 4
EndSplineSet
Fore
SplineSet
-68 63 m 0
 -68 47 -57 32 -11 32 c 0
 59 32 115 88 115 176 c 0
 115 225 86 259 32 259 c 0
 -1 259 -36 249 -63 233 c 1
 -81 253 l 9
 -16 475 l 1
 48 466 94 462 157 462 c 0
 183 462 207 463 237 466 c 1
 245 454 l 1
 208 411 156 384 84 384 c 0
 50 384 33 387 -1 392 c 9
 -30 288 l 17
 -4 297 25 300 54 300 c 0
 131 300 199 250 199 168 c 0
 199 57 97 -5 4 -5 c 0
 -94 -5 -155 45 -155 106 c 0
 -155 145 -132 169 -99 169 c 0
 -70 169 -54 150 -54 119 c 0
 -54 89 -68 80 -68 63 c 0
EndSplineSet
EndChar

StartChar: six.tuplet
Encoding: 57616 57616 73
Width: 0
VWidth: 0
Flags: HW
HStem: -7 38<-45 60> 250 37<-16 93> 447 38<54 143>
VStem: -138 66<78 192> 116 80<92 225> 144 89<365 447>
LayerCount: 4
Back
SplineSet
176.03515625 322.334960938 m 4
 146.96484375 322.334960938 129.865234375 341.14453125 129.865234375 364.23046875 c 4
 129.865234375 388.169921875 148.674804688 400.994140625 148.674804688 422.369140625 c 4
 148.674804688 438.615234375 139.26953125 450.584960938 112.765625 450.584960938 c 4
 34.10546875 450.584960938 -19.759765625 352.259765625 -46.265625 250.515625 c 5
 -20.615234375 272.744140625 14.4404296875 287.280273438 49.494140625 287.280273438 c 4
 139.26953125 287.280273438 191.424804688 222.299804688 191.424804688 151.334960938 c 4
 191.424804688 55.5751953125 106.780273438 -6.83984375 25.5556640625 -6.83984375 c 4
 -89.015625 -6.83984375 -138.60546875 78.66015625 -138.60546875 175.275390625 c 4
 -138.60546875 359.099609375 2.4697265625 485.640625 112.765625 485.640625 c 4
 194.844726562 485.640625 230.755859375 430.065429688 230.755859375 386.459960938 c 4
 230.755859375 349.694335938 205.959960938 322.334960938 176.03515625 322.334960938 c 4
106.780273438 172.709960938 m 4
 106.780273438 216.315429688 86.259765625 249.66015625 38.380859375 249.66015625 c 4
 -18.0498046875 249.66015625 -68.494140625 189.809570312 -68.494140625 112.005859375 c 4
 -68.494140625 67.544921875 -41.990234375 31.634765625 8.455078125 31.634765625 c 4
 63.1748046875 31.634765625 106.780273438 99.1806640625 106.780273438 172.709960938 c 4
EndSplineSet
Fore
SplineSet
113 448 m 0
 34 448 -24 352 -50 251 c 1
 -25 273 13 288 48 288 c 0
 138 288 191 222 191 151 c 0
 191 56 107 -7 26 -7 c 0
 -89 -7 -137 79 -137 175 c 0
 -137 359 2 486 113 486 c 0
 174 486 232 455 232 397 c 0
 232 366 212 339 179 339 c 0
 155 339 136 356 136 382 c 0
 136 395 143 408 143 421 c 0
 143 439 134 448 113 448 c 0
111 173 m 0
 111 216 86 247 38 247 c 0
 -18 247 -69 190 -69 112 c 0
 -69 68 -42 34 8 34 c 0
 63 34 111 99 111 173 c 0
EndSplineSet
Layer: 2
SplineSet
233 396 m 4xf4
 233 365 213 338 180 338 c 4
 156 338 137 355 137 381 c 4
 137 394 144 407 144 420 c 4xf4
 144 438 135 447 114 447 c 4
 30 447 -26 353 -53 251 c 1
 -27 273 12 287 52 287 c 0
 146 287 196 222 196 151 c 0xf8
 196 55 113 -7 27 -7 c 0
 -92 -7 -138 79 -138 175 c 0
 -138 359 -1 485 114 485 c 4
 175 485 233 454 233 396 c 4xf4
116 173 m 0xf8
 116 217 92 250 40 250 c 0
 -22 250 -72 190 -72 112 c 0
 -72 67 -45 31 10 31 c 0
 70 31 116 99 116 173 c 0xf8
EndSplineSet
EndChar

StartChar: seven.tuplet
Encoding: 57617 57617 74
Width: 0
VWidth: 0
Flags: HW
HStem: 403 75<-25 80> 403 42<-54 -13>
VStem: -135 34<295 322> -95 104<16 103> -88 33<456 476>
LayerCount: 4
Back
SplineSet
134.330078125 359.099609375 m 5
 95.85546875 366.794921875 25.744140625 400.140625 -13.5849609375 400.140625 c 4
 -39.234375 400.140625 -72.580078125 389.025390625 -102.505859375 294.119140625 c 5
 -134.994140625 295.830078125 l 5
 -88.8251953125 477.944335938 l 5
 -55.48046875 476.234375 l 5
 -57.1904296875 467.684570312 -58.044921875 460.844726562 -58.044921875 455.71484375 c 4
 -58.044921875 448.875 -55.48046875 444.599609375 -48.640625 444.599609375 c 4
 -34.10546875 444.599609375 -12.73046875 477.944335938 32.5849609375 477.944335938 c 4
 92.4345703125 477.944335938 89.869140625 426.64453125 134.330078125 426.64453125 c 4
 157.415039062 426.64453125 176.224609375 442.03515625 187.33984375 463.41015625 c 5
 224.10546875 460.844726562 l 5
 159.98046875 304.380859375 42.8447265625 200.069335938 4.369140625 57.28515625 c 4
 -7.599609375 12.8251953125 -34.9599609375 -5.130859375 -59.755859375 -5.130859375 c 4
 -83.6943359375 -5.130859375 -104.21484375 11.9697265625 -104.21484375 41.0400390625 c 4
 -104.21484375 123.119140625 34.294921875 234.26953125 134.330078125 359.099609375 c 5
EndSplineSet
Fore
SplineSet
134.330078125 359.099609375 m 1
 95.85546875 366.794921875 25.744140625 400.140625 -13.5849609375 400.140625 c 0
 -39.234375 400.140625 -72.580078125 389.025390625 -102.505859375 294.119140625 c 1
 -134.994140625 295.830078125 l 1
 -88.8251953125 477.944335938 l 1
 -55.48046875 476.234375 l 1
 -57.1904296875 467.684570312 -58.044921875 460.844726562 -58.044921875 455.71484375 c 0
 -58.044921875 448.875 -55.48046875 444.599609375 -48.640625 444.599609375 c 0
 -34.10546875 444.599609375 -12.73046875 477.944335938 32.5849609375 477.944335938 c 0
 92.4345703125 477.944335938 89.869140625 426.64453125 134.330078125 426.64453125 c 0
 157.415039062 426.64453125 176.224609375 442.03515625 187.33984375 463.41015625 c 1
 224.10546875 460.844726562 l 1
 159.98046875 304.380859375 42.8447265625 200.069335938 4.369140625 57.28515625 c 0
 -7.599609375 12.8251953125 -34.9599609375 -5.130859375 -59.755859375 -5.130859375 c 0
 -83.6943359375 -5.130859375 -104.21484375 11.9697265625 -104.21484375 41.0400390625 c 0
 -104.21484375 123.119140625 34.294921875 234.26953125 134.330078125 359.099609375 c 1
EndSplineSet
EndChar

StartChar: eight.tuplet
Encoding: 57618 57618 75
Width: 0
VWidth: 2898
Flags: HW
HStem: -7 43<-48 99> 444 42<32 162>
VStem: -145 50<80 180> -60 68<330 416> 130 70<71 155> 189 51<318 418>
LayerCount: 4
Back
SplineSet
27.359375 -6.83984375 m 4
 -73.5302734375 -6.83984375 -144.494140625 58.140625 -144.494140625 124.830078125 c 4
 -144.494140625 202.634765625 -81.224609375 242.819335938 -20.51953125 258.209960938 c 5
 -43.60546875 281.294921875 -60.705078125 308.655273438 -60.705078125 346.275390625 c 4
 -60.705078125 430.065429688 7.6943359375 485.640625 88.919921875 485.640625 c 4
 174.419921875 485.640625 229.994140625 430.919921875 229.994140625 368.505859375 c 4
 229.994140625 305.234375 184.680664062 266.759765625 129.959960938 246.240234375 c 5
 162.450195312 218.880859375 190.665039062 186.390625 190.665039062 141.075195312 c 4
 190.665039062 48.734375 106.875 -6.83984375 27.359375 -6.83984375 c 4
-94.0498046875 128.25 m 4
 -94.0498046875 85.5 -47.880859375 35.91015625 25.650390625 35.91015625 c 4
 76.9501953125 35.91015625 120.555664062 64.98046875 120.555664062 106.875 c 4
 120.555664062 158.174804688 53.865234375 198.359375 12.8251953125 229.140625 c 5
 -36.765625 220.58984375 -94.0498046875 190.665039062 -94.0498046875 128.25 c 4
88.919921875 443.744140625 m 4
 45.3154296875 443.744140625 7.6943359375 419.805664062 7.6943359375 376.200195312 c 4
 7.6943359375 336.869140625 54.7197265625 303.525390625 94.9052734375 272.744140625 c 5
 141.075195312 286.424804688 179.549804688 321.48046875 179.549804688 371.924804688 c 4
 179.549804688 412.96484375 142.78515625 443.744140625 88.919921875 443.744140625 c 4
EndSplineSet
Fore
SplineSet
27.359375 -6.83984375 m 0
 -73.5302734375 -6.83984375 -144.494140625 58.140625 -144.494140625 124.830078125 c 0
 -144.494140625 202.634765625 -81.224609375 242.819335938 -20.51953125 258.209960938 c 1
 -43.60546875 281.294921875 -60.705078125 308.655273438 -60.705078125 346.275390625 c 0
 -60.705078125 430.065429688 7.6943359375 485.640625 88.919921875 485.640625 c 0
 174.419921875 485.640625 229.994140625 430.919921875 229.994140625 368.505859375 c 0
 229.994140625 305.234375 184.680664062 266.759765625 129.959960938 246.240234375 c 1
 162.450195312 218.880859375 190.665039062 186.390625 190.665039062 141.075195312 c 0
 190.665039062 48.734375 106.875 -6.83984375 27.359375 -6.83984375 c 0
-94.0498046875 128.25 m 0
 -94.0498046875 85.5 -47.880859375 35.91015625 25.650390625 35.91015625 c 0
 76.9501953125 35.91015625 120.555664062 64.98046875 120.555664062 106.875 c 0
 120.555664062 158.174804688 53.865234375 198.359375 12.8251953125 229.140625 c 1
 -36.765625 220.58984375 -94.0498046875 190.665039062 -94.0498046875 128.25 c 0
88.919921875 443.744140625 m 0
 45.3154296875 443.744140625 7.6943359375 419.805664062 7.6943359375 376.200195312 c 0
 7.6943359375 336.869140625 54.7197265625 303.525390625 94.9052734375 272.744140625 c 1
 141.075195312 286.424804688 179.549804688 321.48046875 179.549804688 371.924804688 c 0
 179.549804688 412.96484375 142.78515625 443.744140625 88.919921875 443.744140625 c 0
EndSplineSet
EndChar

StartChar: nine.tuplet
Encoding: 57619 57619 76
Width: 0
VWidth: 0
Flags: HW
HStem: -7 39<-53 50> 197 38<2 116> 446 40<37 150>
VStem: -145 95<45 137> -95 75<256 384> 171 67<290 411>
LayerCount: 4
Back
SplineSet
-93.2900390625 160.740234375 m 4
 -65.9306640625 160.740234375 -48.830078125 142.78515625 -48.830078125 117.990234375 c 4
 -48.830078125 95.759765625 -63.365234375 82.9345703125 -63.365234375 64.125 c 4
 -63.365234375 46.169921875 -41.134765625 29.9248046875 -8.64453125 29.9248046875 c 4
 76.85546875 29.9248046875 118.75 148.76953125 140.125 229.140625 c 5
 112.765625 210.330078125 81.984375 196.650390625 46.9306640625 196.650390625 c 4
 -41.134765625 196.650390625 -94.14453125 257.35546875 -94.14453125 321.48046875 c 4
 -94.14453125 418.094726562 -6.9345703125 485.640625 82.83984375 485.640625 c 4
 186.294921875 485.640625 234.174804688 411.255859375 234.174804688 314.640625 c 4
 234.174804688 285.569335938 229.900390625 254.790039062 221.349609375 221.444335938 c 4
 180.309570312 67.544921875 82.83984375 -6.83984375 -6.9345703125 -6.83984375 c 4
 -95 -6.83984375 -146.299804688 56.4306640625 -146.299804688 101.744140625 c 4
 -146.299804688 134.234375 -123.21484375 160.740234375 -93.2900390625 160.740234375 c 4
-12.0654296875 304.380859375 m 4
 -12.0654296875 263.33984375 11.875 234.26953125 58.900390625 234.26953125 c 4
 117.89453125 234.26953125 164.065429688 294.119140625 164.065429688 366.794921875 c 4
 164.065429688 413.819335938 140.125 445.455078125 93.099609375 445.455078125 c 4
 34.10546875 445.455078125 -12.0654296875 377.91015625 -12.0654296875 304.380859375 c 4
EndSplineSet
Fore
SplineSet
-10 33 m 0
 76 33 120 149 141 229 c 1
 114 210 81 197 46 197 c 0
 -42 197 -95 257 -95 321 c 0
 -95 418 -8 486 82 486 c 0
 185 486 231 411 231 315 c 0
 231 286 227 255 218 221 c 0
 177 68 82 -7 -8 -7 c 0
 -102 -7 -148 56 -148 92 c 0
 -148 121 -127 148 -95 148 c 0
 -71 148 -53 131 -53 104 c 0
 -53 89 -59 77 -59 64 c 0
 -59 40 -40 33 -10 33 c 0
-17 304 m 0
 -17 263 11 238 58 238 c 0
 117 238 165 294 165 367 c 0
 165 414 139 443 92 443 c 0
 30 443 -17 378 -17 304 c 0
EndSplineSet
Layer: 2
SplineSet
-144 92 m 4xf4
 -144 121 -123 148 -91 148 c 4
 -67 148 -49 131 -49 104 c 4xf4
 -49 89 -55 77 -55 64 c 4
 -55 40 -36 32 -6 32 c 4
 82 32 130 149 152 229 c 1
 124 210 87 197 49 197 c 0
 -40 197 -94 257 -94 321 c 0xec
 -94 418 -5 485 86 485 c 0
 192 485 239 411 239 314 c 0
 239 286 236 254 227 221 c 0
 186 67 88 -7 -4 -7 c 4
 -98 -7 -144 56 -144 92 c 4xf4
-19 304 m 0xec
 -19 263 8 235 62 235 c 0
 124 235 172 295 172 367 c 0
 172 415 146 446 96 446 c 0
 30 446 -19 378 -19 304 c 0xec
EndSplineSet
EndChar

StartChar: two.tuplet.bracket
Encoding: 57622 57622 77
Width: 0
VWidth: 0
Flags: HW
HStem: -10 80<31.6655 153.051> 258 48<-584 -222 346 708> 471 40<24.9643 149.038>
VStem: -632 48<100 258> -83 90<346.982 432.14> 174 91<315.772 441.364> 184 32<111.101 136> 708 48<100 258>
LayerCount: 4
Fore
SplineSet
756 100 m 5xf9
 708 100 l 5
 708 258 l 5
 346 258 l 5
 346 306 l 5
 756 306 l 5
 756 100 l 5xf9
-632 100 m 5
 -632 306 l 5
 -222 306 l 5
 -222 258 l 5
 -584 258 l 5
 -584 100 l 5
 -632 100 l 5
EndSplineSet
Refer: 69 57612 N 1 0 0 1 0 0 2
EndChar

StartChar: three.tuplet.bracket
Encoding: 57623 57623 78
Width: 0
VWidth: 0
Flags: HW
HStem: -7 43<-65.7637 77.5617> 247 34<11 48.4274> 258 48<-584 -222 346 708> 475 36<32.3819 153.228>
VStem: -632 48<100 258> -161 82<60.1559 128.851> -64 91<377.642 455.203> 126 83<82.7167 197.465> 179 82<332.963 444.284> 708 48<100 258>
LayerCount: 4
Fore
SplineSet
756 100 m 5xbe40
 708 100 l 5
 708 258 l 5
 346 258 l 5
 346 306 l 5
 756 306 l 5
 756 100 l 5xbe40
-632 100 m 5
 -632 306 l 5
 -222 306 l 5
 -222 258 l 5
 -584 258 l 5
 -584 100 l 5
 -632 100 l 5
EndSplineSet
Refer: 70 57613 N 1 0 0 1 0 0 2
EndChar

StartChar: four.tuplet.bracket
Encoding: 57624 57624 79
Width: 0
VWidth: 0
Flags: HW
HStem: 0 36<-26 39.9766 147.614 196> 147 44<-99 77 171 257> 258 48<-584 -222 346 708>
VStem: -632 48<100 258> 708 48<100 258>
LayerCount: 4
Fore
SplineSet
756 100 m 5
 708 100 l 5
 708 258 l 5
 346 258 l 5
 346 306 l 5
 756 306 l 5
 756 100 l 5
-632 100 m 5
 -632 306 l 5
 -222 306 l 5
 -222 258 l 5
 -584 258 l 5
 -584 100 l 5
 -632 100 l 5
EndSplineSet
Refer: 71 57614 N 1 0 0 1 0 0 2
EndChar

StartChar: five.tuplet.bracket
Encoding: 57625 57625 80
Width: 0
VWidth: 0
Flags: HW
HStem: -5 39<-73.2619 57.5111> 258 48<-584 -222 346 708> 271 43<-30.5096 100.717> 406 80<-2.77598 195.499>
VStem: -632 48<100 258> -163.218 85.3301<51.5991 144.683> 131.218 83<102.953 242.006> 708 48<100 258>
LayerCount: 4
Fore
SplineSet
756 100 m 5xdf
 708 100 l 5
 708 258 l 5
 346 258 l 5
 346 306 l 5
 756 306 l 5
 756 100 l 5xdf
-632 100 m 5
 -632 306 l 5
 -222 306 l 5
 -222 258 l 5
 -584 258 l 5
 -584 100 l 5
 -632 100 l 5
EndSplineSet
Refer: 72 57615 N 1 0 0 1 0 0 2
EndChar

StartChar: six.tuplet.bracket
Encoding: 57626 57626 81
Width: 0
VWidth: 0
Flags: HW
HStem: -7 40<-47.8899 63.3341> 258 48<-584 -222 346 708> 263 39<-16.3468 98.3811> 471 40<56.6086 150.292>
VStem: -632 48<100 258> -145.5 70<82.0813 202.39> 122.5 84<96.4423 237.085> 151.5 94<384.551 470.024> 708 48<100 258>
LayerCount: 4
Fore
SplineSet
756 100 m 5xdc80
 708 100 l 5
 708 258 l 5
 346 258 l 5
 346 306 l 5
 756 306 l 5
 756 100 l 5xdc80
-632 100 m 5
 -632 306 l 5
 -222 306 l 5
 -222 258 l 5
 -584 258 l 5
 -584 100 l 5
 -632 100 l 5
EndSplineSet
Refer: 73 57616 N 1 0 0 1 0 0 2
EndChar

StartChar: seven.tuplet.bracket
Encoding: 57627 57627 82
Width: 0
VWidth: 0
Flags: HW
HStem: 258 48<-584 -222 346 708> 424 44<-56.7322 -13.8713> 424 79<-26.161 84.2812>
VStem: -632 48<100 258> -142 36<311 338.429> -100 109<16.7693 108.168> -93 35<480.236 501.4> 708 48<100 258>
LayerCount: 4
Fore
SplineSet
756 100 m 1x99
 708 100 l 1
 708 258 l 1
 346 258 l 1
 346 306 l 1
 756 306 l 1
 756 100 l 1x99
-632 100 m 1
 -632 306 l 1
 -222 306 l 1
 -222 258 l 1
 -584 258 l 1
 -584 100 l 1
 -632 100 l 1
EndSplineSet
Refer: 74 57617 N 1 0 0 1 20 0 2
EndChar

StartChar: eight.tuplet.bracket
Encoding: 57628 57628 83
Width: 0
VWidth: 2898
Flags: HW
HStem: -7 45<-50.0634 104.104> 258 48<-584 -222 346 708> 467 44<33.3514 170.924>
VStem: -632 48<100 258> -152.5 53<83.7469 189.873> -63.5 72<347.65 438.106> 136.5 74<74.8043 163.337> 198.5 54<334.948 440.423> 708 48<100 258>
LayerCount: 4
Fore
SplineSet
756 100 m 5xfc80
 708 100 l 5
 708 258 l 5
 346 258 l 5
 346 306 l 5
 756 306 l 5
 756 100 l 5xfc80
-632 100 m 5
 -632 306 l 5
 -222 306 l 5
 -222 258 l 5
 -584 258 l 5
 -584 100 l 5
 -632 100 l 5
EndSplineSet
Refer: 75 57618 N 1 0 0 1 0 0 2
EndChar

StartChar: nine.tuplet.bracket
Encoding: 57629 57629 84
Width: 0
VWidth: 0
Flags: HW
HStem: -7 41<-55.0061 53.9047> 207 40<2.81464 123.393> 258 48<-584 -222 346 708> 469 42<40.292 158.488>
VStem: -632 48<100 258> -152 100<47.3945 143.813> -99 79<269.178 404.241> 181 71<305.433 432.677> 708 48<100 258>
LayerCount: 4
Fore
SplineSet
756 100 m 5xf980
 708 100 l 5
 708 258 l 5
 346 258 l 5
 346 306 l 5
 756 306 l 5
 756 100 l 5xf980
-632 100 m 5
 -632 306 l 5
 -222 306 l 5
 -222 258 l 5
 -584 258 l 5
 -584 100 l 5
 -632 100 l 5
EndSplineSet
Refer: 76 57619 N 1 0 0 1 0 0 2
EndChar

StartChar: zero.tuplet.bracket
Encoding: 57620 57620 85
Width: 0
VWidth: 0
Flags: HW
HStem: -7 43<-49.2943 57.375> 258 48<-584 -222 346 708> 468 43<43.7537 147.817>
VStem: -632 48<100 258> -148 76<81.3331 251.144> 170 78<246.699 422.387> 708 48<100 258>
LayerCount: 4
Fore
SplineSet
756 100 m 5
 708 100 l 5
 708 258 l 5
 346 258 l 5
 346 306 l 5
 756 306 l 5
 756 100 l 5
-632 100 m 5
 -632 306 l 5
 -222 306 l 5
 -222 258 l 5
 -584 258 l 5
 -584 100 l 5
 -632 100 l 5
EndSplineSet
Refer: 67 57610 N 1 0 0 1 0 0 2
EndChar

StartChar: one.tuplet.bracket
Encoding: 57621 57621 86
Width: 0
VWidth: 0
Flags: HW
HStem: 0 38<-93 -12.7473 97.3904 163> 258 48<-584 -222 346 708>
VStem: -632 48<100 258> -99 298 708 48<100 258>
LayerCount: 4
Fore
SplineSet
756 100 m 5
 708 100 l 5
 708 258 l 5
 346 258 l 5
 346 306 l 5
 756 306 l 5
 756 100 l 5
-632 100 m 5
 -632 306 l 5
 -222 306 l 5
 -222 258 l 5
 -584 258 l 5
 -584 100 l 5
 -632 100 l 5
EndSplineSet
Refer: 68 57611 N 1 0 0 1 0 0 2
EndChar

StartChar: half.shortStem
Encoding: 57865 57865 87
Width: 536
VWidth: 1010
Flags: HW
HStem: -42 51<110.131 260.5> 261 51<303.85 424.948>
VStem: 50 46<17.6805 106.788> 440 46<166.096 253.676 281 945>
LayerCount: 4
Fore
SplineSet
440 945 m 5
 486 945 l 5
 486 187 l 2
 486 126 427 37 386 9 c 0
 347 -19 288 -42 233 -42 c 0
 134 -42 50 -18 50 83 c 0
 50 153 109 234 159 266 c 0
 204 296 280 312 325 312 c 0
 366 312 409 303 440 281 c 1
 440 945 l 5
443 213 m 0
 443 245 418 261 384 261 c 0
 314 261 237 200 173 154 c 0
 125 117 96 96 96 54 c 0
 96 30 115 9 154 9 c 0
 213 9 299 70 344 101 c 0
 379 126 443 174 443 213 c 0
EndSplineSet
EndChar

StartChar: quarter.shortStem
Encoding: 57866 57866 88
Width: 521
VWidth: 1010
Flags: HW
HStem: -34 338<220.016 306.545>
VStem: 425 46<276 945>
LayerCount: 4
Fore
SplineSet
50 85 m 0
 50 188 182 304 321 304 c 0
 361 304 398 295 425 276 c 1
 425 945 l 5
 471 945 l 5
 471 183 l 2
 471 81 339 -34 199 -34 c 0
 119 -34 50 4 50 85 c 0
EndSplineSet
EndChar

StartChar: eighth.shortStem
Encoding: 57867 57867 89
Width: 752
VWidth: 1010
Flags: HW
HStem: -34 338<220.016 306.545>
VStem: 425 46<276 589> 425 30<881.906 945> 699 53<140.135 419.914>
LayerCount: 4
Fore
SplineSet
670 109 m 5xb0
 684 168 699 228 699 297 c 4
 699 417 643 525 548 569 c 4
 532 576 500 589 471 589 c 5
 471 183 l 2
 471 81 339 -34 199 -34 c 0
 119 -34 50 4 50 85 c 0
 50 188 182 304 321 304 c 0
 361 304 398 295 425 276 c 1xd0
 425 945 l 5
 455 945 l 5
 472 792 595 661 640 605 c 4
 696 534 752 432 752 301 c 4
 752 239 736 144 715 91 c 5
 670 109 l 5xb0
EndSplineSet
EndChar

StartChar: sixteenth.shortStem
Encoding: 57868 57868 90
Width: 762
VWidth: 1010
Flags: HW
HStem: -34 338<220.016 306.545>
VStem: 425 40<589.125 689 902.995 992> 685 53<51.2015 276.646 390.962 568.867>
LayerCount: 4
Fore
SplineSet
676.208007812 53.50390625 m 1
 683.727539062 92.5126953125 685 127.196289062 685 178 c 0
 685 271 633 342 575 385 c 0
 544 408 494 421 471 421 c 1
 471 183 l 2
 471 81 339 -34 199 -34 c 0
 119 -34 50 4 50 85 c 0
 50 188 182 304 321 304 c 0
 361 304 398 295 425 276 c 1
 425 992 l 1
 459 992 l 1
 464 966 469 939 479 914 c 0
 511 834 543 792 605 730 c 0
 669 662 740 578 740 483 c 0
 740 420 723 377 700 339 c 1
 726 289 738 237 738 178 c 0
 738 124.999023438 732.803710938 82.7607421875 723.317382812 43.373046875 c 1
 676.208007812 53.50390625 l 1
689 476 m 0
 689 524 670 566 640 604 c 0
 610 643 548 689 465 689 c 1
 467 596 493 569 528 529 c 0
 571 479 625 451 669 390 c 1
 680 412 689 438 689 476 c 0
EndSplineSet
Layer: 2
SplineSet
685 178 m 0
 684 271 633 342 575 385 c 0
 544 408 494 421 471 421 c 2
 425 421 l 1
 425 698 l 25
 465 698 l 17xb0
 465 598 492 570 528 529 c 0
 573 477 630 448 675 381 c 0
 718 318 737 253 738 178 c 0
 738 124.999023438 732.803710938 82.7607421875 723.317382812 43.373046875 c 1
 676.208007812 53.50390625 l 1
 683.727539062 92.5126953125 685 127.196289062 685 178 c 0
689 476 m 0xb0
 689 524 670 566 640 604 c 0
 610 643 548 689 465 689 c 2
 425 689 l 9xd0
 425 992 l 1
 459 992 l 1
 464 966 469 939 479 914 c 0
 511 834 543 792 605 730 c 0
 669 662 740 578 740 483 c 0
 740 406 715 359 684 315 c 1
 644 336 l 1
 660 380 689 408 689 476 c 0xb0
425 574 m 1
 471 574 l 1
 471 183 l 1
 425 183 l 1
 425 574 l 1
50 85 m 0
 50 188 182 304 321 304 c 0
 402 304 471 266 471 183 c 0
 471 81 339 -34 199 -34 c 0
 119 -34 50 4 50 85 c 0
EndSplineSet
EndChar

StartChar: thirtysecond.shortStem
Encoding: 57869 57869 92
Width: 740
VWidth: 1010
Flags: HW
HStem: -34 338<220.016 306.545>
VStem: 425 40<572.25 649 832.705 909 1122.99 1212> 689 51<33.8712 246.543 363.048 521.686 615.158 780.912>
LayerCount: 4
Fore
SplineSet
676.475585938 34.904296875 m 1
 683.7578125 73.3466796875 685 107.8046875 685 158 c 0
 685 251 633 322 575 365 c 0
 544 388 494 401 471 401 c 1
 471 183 l 2
 471 81 339 -34 199 -34 c 0
 119 -34 50 4 50 85 c 0
 50 188 182 304 321 304 c 0
 361 304 398 295 425 276 c 1
 425 1212 l 1
 459 1212 l 1
 464 1186 469 1159 479 1134 c 0
 511 1054 543 1012 605 950 c 0
 669 882 740 798 740 703 c 0
 740 643 725 602 704 566 c 1
 726 528 740 487 740 443 c 0
 740 385 726 344 705 308 c 1
 728 261 738 212 738 158 c 0
 738 106.821289062 733.155273438 65.6787109375 724.280273438 27.4453125 c 1
 676.475585938 34.904296875 l 1
689 696 m 0
 689 744 670 786 640 824 c 0
 610 863 548 909 465 909 c 1
 467 850 496 803 540 756 c 0
 580 714 631 667 671 614 c 1
 681 636 689 660 689 696 c 0
465 649 m 1
 467 591 493 549 528 509 c 0
 573 457 630 428 675 362 c 1
 683 382 689 405 689 436 c 0
 689 484 670 526 640 564 c 0
 610 603 548 649 465 649 c 1
EndSplineSet
EndChar

StartChar: bar
Encoding: 124 124 93
Width: 651
VWidth: 1010
Flags: HW
VStem: 350 51<-254 1136>
LayerCount: 4
Fore
SplineSet
350 1066 m 5
 401 1066 l 5
 401 -184 l 5
 350 -184 l 5
 350 1066 l 5
EndSplineSet
EndChar

StartChar: greater
Encoding: 62 62 95
Width: 1642
VWidth: 1895
Flags: HW
HStem: 134 56<350 1010>
LayerCount: 4
Fore
SplineSet
1010 134 m 1
 350 134 l 1
 350 190 l 1
 1010 190 l 1
 1006 232 976 303 976 320 c 0
 976 323 976 327 982 327 c 0
 991 327 1035 299 1143 243 c 0
 1245 189 1292 170 1292 163 c 0
 1292 156 1242 138 1144 84 c 0
 1027 20 987 -4 979 -4 c 0
 977 -4 976 -1 976 2 c 0
 976 17 1006 90 1010 134 c 1
EndSplineSet
EndChar

StartChar: bar.double
Encoding: 57870 57870 97
Width: 846
VWidth: 1010
Flags: HW
LayerCount: 4
Fore
SplineSet
545 1066 m 5
 596 1066 l 1
 596 -184 l 1
 545 -184 l 5
 545 1066 l 5
350 1066 m 1
 401 1066 l 1
 401 -184 l 1
 350 -184 l 1
 350 1066 l 1
EndSplineSet
EndChar

StartChar: bar.final
Encoding: 57871 57871 98
Width: 956
VWidth: 1010
Flags: HW
LayerCount: 4
Fore
SplineSet
550 1066 m 1
 706 1066 l 1
 706 -184 l 1
 550 -184 l 1
 550 1066 l 1
350 1066 m 1
 401 1066 l 5
 401 -184 l 5
 350 -184 l 1
 350 1066 l 1
EndSplineSet
EndChar

StartChar: bar.repeatStart
Encoding: 57872 57872 99
Width: 1246
VWidth: 1010
Flags: HW
LayerCount: 4
Fore
SplineSet
506 -184 m 1
 350 -184 l 1
 350 1066 l 1
 506 1066 l 1
 506 -184 l 1
706 -184 m 1
 655 -184 l 1
 655 1066 l 1
 706 1066 l 1
 706 -184 l 1
834 247 m 0
 834 293 869 328 915 328 c 0
 961 328 996 293 996 247 c 0
 996 201 961 166 915 166 c 0
 869 166 834 201 834 247 c 0
834 635 m 0
 834 681 869 716 915 716 c 0
 961 716 996 681 996 635 c 0
 996 589 961 554 915 554 c 0
 869 554 834 589 834 635 c 0
EndSplineSet
EndChar

StartChar: rhythmDot
Encoding: 57874 57874 100
Width: 322
VWidth: -5
Flags: HW
LayerCount: 4
Fore
SplineSet
110 141 m 0
 110 187 145 222 191 222 c 0
 237 222 272 187 272 141 c 0
 272 95 237 60 191 60 c 0
 145 60 110 95 110 141 c 0
EndSplineSet
EndChar

